<svg width="79" height="79" viewBox="0 0 79 79" fill="none" xmlns="http://www.w3.org/2000/svg">
    <g clip-path="url(#clip0)">
        <path d="M67.1927 39.8821C67.1927 43.0632 66.7079 46.1331 65.8053 49.0171C65.7076 49.3389 65.6022 49.6571 65.4892 49.9732C65.1327 51.0042 64.7189 52.0084 64.2551 52.9857C63.8661 53.8098 63.4405 54.6126 62.9789 55.3926C62.0591 56.9582 61.0051 58.4338 59.8285 59.8039C58.5982 61.2392 57.2375 62.5597 55.7658 63.7478C50.5132 67.9771 43.8348 70.5105 36.5643 70.5105C19.6491 70.5105 5.93595 56.7973 5.93595 39.8821C5.93595 22.9668 19.6488 9.25366 36.5642 9.25366C53.4796 9.25366 67.1927 22.9668 67.1927 39.8821Z" fill="url(#paint0_linear)"/>
        <path d="M36.5642 19.1316C35.3624 19.1316 34.388 36.5042 34.388 37.706C34.388 38.4718 34.7845 39.144 35.3826 39.5318L57.8015 61.9507C61.5836 58.3102 64.4311 53.7067 65.9514 48.5347C60.9453 43.565 36.5642 19.1316 36.5642 19.1316Z" fill="url(#paint1_linear)"/>
        <path d="M36.5647 41.6134C37.5206 41.6134 38.2956 40.8385 38.2956 39.8825C38.2956 38.9266 37.5206 38.1516 36.5647 38.1516C35.6087 38.1516 34.8338 38.9266 34.8338 39.8825C34.8338 40.8385 35.6087 41.6134 36.5647 41.6134Z" fill="url(#paint2_linear)"/>
        <path d="M36.5642 15.5562C36.354 15.5562 36.1638 15.6413 36.026 15.7791C35.8884 15.9167 35.803 16.107 35.803 16.3173V21.8977C35.803 22.0553 35.8509 22.2017 35.933 22.3231C35.9876 22.4042 36.0575 22.474 36.1385 22.5287C36.1789 22.5561 36.2223 22.5796 36.2678 22.5989C36.3588 22.6373 36.459 22.6587 36.5639 22.6587C36.774 22.6587 36.9643 22.5736 37.1021 22.4358C37.2397 22.298 37.325 22.1079 37.325 21.8976V16.3171C37.3252 15.8968 36.9843 15.5562 36.5642 15.5562Z" fill="url(#paint3_linear)"/>
        <path d="M36.5642 57.1056C36.1439 57.1056 35.8032 57.4464 35.8032 57.8666V63.447C35.8032 63.5196 35.8165 63.5882 35.8354 63.6546C35.9262 63.9732 36.2164 64.208 36.564 64.208C36.6691 64.208 36.7693 64.1866 36.8601 64.1482C37.1332 64.0326 37.325 63.7621 37.325 63.4469V57.8664C37.3252 57.4463 36.9843 57.1056 36.5642 57.1056Z" fill="url(#paint4_linear)"/>
        <path d="M60.129 39.1212H54.5486C54.1283 39.1212 53.7876 39.4619 53.7876 39.8822C53.7876 40.3025 54.1283 40.6432 54.5486 40.6432H60.129C60.5493 40.6432 60.89 40.3025 60.89 39.8822C60.8902 39.4619 60.5493 39.1212 60.129 39.1212Z" fill="url(#paint5_linear)"/>
        <path d="M19.3408 39.8821C19.3408 39.7245 19.293 39.578 19.2109 39.4565C19.1563 39.3755 19.0864 39.3056 19.0054 39.251C18.8839 39.1689 18.7375 39.1211 18.5798 39.1211H12.9992C12.7891 39.1211 12.5988 39.2063 12.461 39.3441C12.3234 39.4818 12.2381 39.6719 12.2381 39.8822C12.2381 40.3025 12.5787 40.6432 12.9991 40.6432H18.5795C18.7897 40.6432 18.9799 40.5581 19.1177 40.4203C19.2555 40.2825 19.3408 40.0924 19.3408 39.8821Z" fill="url(#paint6_linear)"/>
        <path d="M49.8192 27.7033L53.7652 23.7573C54.0624 23.4601 54.0624 22.9782 53.7652 22.6811C53.468 22.3837 52.9862 22.3839 52.689 22.6811L48.743 26.6271C48.4457 26.9244 48.4457 27.4061 48.743 27.7033C49.0402 28.0005 49.522 28.0005 49.8192 27.7033Z" fill="url(#paint7_linear)"/>
        <path d="M24.3852 52.061C24.0881 51.7638 23.6062 51.7638 23.309 52.061L19.363 56.007C19.1067 56.2633 19.0728 56.6564 19.2586 56.9507C19.2822 56.988 19.3104 57.0229 19.3411 57.0565C19.349 57.0652 19.3545 57.0749 19.363 57.0834C19.5081 57.2284 19.6971 57.3016 19.8872 57.305C19.8918 57.3051 19.8964 57.3064 19.9011 57.3064C20.0958 57.3064 20.2905 57.232 20.4392 57.0834L24.3852 53.1374C24.4966 53.026 24.5664 52.8887 24.5942 52.7447C24.6034 52.6967 24.608 52.6481 24.608 52.5994C24.6082 52.4043 24.534 52.2095 24.3852 52.061Z" fill="url(#paint8_linear)"/>
        <path d="M53.7652 56.0069L49.8192 52.0609C49.7263 51.968 49.6146 51.9077 49.497 51.8728C49.3839 51.8393 49.2655 51.8304 49.1497 51.8504C49.0008 51.8765 48.8581 51.9456 48.7432 52.0606C48.4458 52.3579 48.4458 52.8396 48.7432 53.1368L52.6892 57.0828C52.7337 57.1274 52.7833 57.163 52.835 57.1942C53.1275 57.371 53.5128 57.3355 53.7655 57.0828C53.8866 56.9617 53.9558 56.8094 53.978 56.6518C54.0102 56.4235 53.9413 56.1831 53.7652 56.0069Z" fill="url(#paint9_linear)"/>
        <path d="M20.4392 22.6812C20.2907 22.5326 20.0958 22.4583 19.9011 22.4583C19.8525 22.4583 19.8037 22.4629 19.7557 22.4721C19.6117 22.5001 19.4744 22.5695 19.363 22.6811C19.2144 22.8296 19.1401 23.0245 19.1401 23.2192C19.1401 23.2678 19.1447 23.3166 19.1539 23.3646C19.1819 23.5085 19.2513 23.6459 19.3629 23.7573L23.3089 27.7033C23.3156 27.7101 23.3237 27.7145 23.3308 27.721C23.4002 27.7855 23.4775 27.8366 23.5607 27.8704C23.6522 27.9076 23.7497 27.9261 23.847 27.9261C24.0418 27.9261 24.2366 27.8517 24.3852 27.7031C24.4966 27.5917 24.5664 27.4542 24.5941 27.3104C24.6034 27.2624 24.608 27.2138 24.608 27.1651C24.608 26.9704 24.5337 26.7755 24.3851 26.6269L20.4392 22.6812Z" fill="url(#paint10_linear)"/>
        <path d="M64.2551 52.9859C63.8661 53.81 63.4405 54.6128 62.9789 55.3927C62.0591 56.9584 61.0051 58.4339 59.8285 59.8041C58.5983 61.2394 57.2375 62.5598 55.7658 63.7479L34.2186 42.2278C32.9212 40.9323 32.9212 38.832 34.2186 37.5366C34.276 37.4792 34.3335 37.4253 34.3948 37.3736C35.6364 36.2929 37.4915 36.2929 38.7333 37.3736C38.7947 37.4253 38.8521 37.479 38.9095 37.5366C38.9669 37.594 39.0245 37.6554 39.0743 37.7168H39.0761C39.1144 37.7186 39.1528 37.7206 39.195 37.7225C39.2678 37.7282 39.3483 37.7321 39.4344 37.7378C39.8867 37.7665 40.5057 37.8145 41.2243 37.8796C41.4389 37.8987 41.6631 37.9198 41.895 37.9428C42.0616 37.96 42.2323 37.9754 42.4066 37.9945C42.5543 38.0098 42.7038 38.0252 42.8569 38.0405C42.968 38.0519 43.0811 38.0655 43.1942 38.0769C43.3744 38.0961 43.5545 38.1172 43.7365 38.1383C44.6028 38.238 45.4995 38.3509 46.356 38.4776C46.473 38.4948 46.5898 38.5122 46.7049 38.5312C46.722 38.533 46.7413 38.535 46.7584 38.5389C46.8925 38.56 47.0249 38.581 47.1551 38.6003C47.2854 38.6233 47.4139 38.6444 47.5404 38.6654C47.6247 38.6807 47.7091 38.6943 47.7933 38.7095C47.9217 38.7325 48.0501 38.7555 48.1766 38.7805C48.2398 38.7919 48.3031 38.8035 48.3644 38.8151C48.4946 38.8419 48.6191 38.8668 48.7419 38.8918C48.7802 38.8995 48.8168 38.907 48.8532 38.9148C48.903 38.9262 48.9528 38.9379 49.0008 38.9473C49.0238 38.9512 49.0468 38.9569 49.0698 38.9626C49.1408 38.9797 49.2116 38.9951 49.2786 39.0104C49.3264 39.0218 49.3724 39.0336 49.4165 39.043C49.5947 39.089 49.7615 39.1329 49.9186 39.1771C49.955 39.1885 49.9914 39.2 50.026 39.2096C50.0548 39.2173 50.0815 39.2267 50.1084 39.2346C50.1486 39.248 50.1869 39.2615 50.2253 39.273C50.2388 39.2769 50.2522 39.2806 50.2656 39.2865C50.3423 39.3133 50.4133 39.3381 50.4802 39.365C50.4859 39.3668 50.4916 39.3707 50.4994 39.3725C50.5358 39.3878 50.5722 39.4033 50.6068 39.4167C50.6891 39.4531 50.762 39.4877 50.8272 39.5241C50.8561 39.5412 50.8808 39.5566 50.9058 39.5719C50.9862 39.6236 51.0476 39.6754 51.0879 39.7271C51.1013 39.7405 51.1108 39.756 51.1186 39.7692C51.1204 39.7731 51.1224 39.775 51.1224 39.777C51.132 39.7941 51.1395 39.8115 51.1436 39.8305C51.1493 39.8476 51.1511 39.8651 51.1511 39.8822L64.2551 52.9859Z" fill="url(#paint11_linear)"/>
        <path d="M38.7404 42.0582C37.5386 42.0582 36.5642 41.0838 36.5642 39.882C36.5642 38.6802 37.5386 37.7058 38.7404 37.7058C39.9422 37.7058 51.1503 38.6802 51.1503 39.882C51.1505 41.084 39.9422 42.0582 38.7404 42.0582Z" fill="url(#paint12_linear)"/>
        <path d="M38.7404 37.7059C38.7404 38.9077 37.766 39.8821 36.5642 39.8821C35.3624 39.8821 34.388 38.9077 34.388 37.7059C34.388 36.5041 35.3624 19.1315 36.5642 19.1315C37.766 19.1316 38.7404 36.5041 38.7404 37.7059Z" fill="url(#paint13_linear)"/>
        <path d="M36.5647 43.2005C38.3971 43.2005 39.8827 41.7149 39.8827 39.8825C39.8827 38.05 38.3971 36.5645 36.5647 36.5645C34.7322 36.5645 33.2467 38.05 33.2467 39.8825C33.2467 41.7149 34.7322 43.2005 36.5647 43.2005Z" fill="url(#paint14_linear)"/>
        <path d="M35.0421 66.1392C34.0973 67.3824 33.625 68.6548 33.625 69.9563V70.3695C34.5923 70.4617 35.5724 70.5106 36.564 70.5106C43.8345 70.5106 50.5129 67.9772 55.7655 63.7479C57.2372 62.5598 58.5979 61.2393 59.8282 59.8041C60.3251 59.2253 60.7988 58.6268 61.2511 58.0118L49.5858 46.3548C47.776 44.741 45.5827 43.9343 43.0059 43.9343C40.5738 43.9343 38.4818 44.6509 36.7304 46.084C34.9783 47.5171 34.1028 49.363 34.1028 51.6212C34.1028 52.7396 34.4027 53.4892 34.9979 53.8755L41.6072 60.5178L38.5327 62.7558C37.1505 63.7684 35.9867 64.896 35.0421 66.1392Z" fill="url(#paint15_linear)"/>
        <path d="M33.6252 74.1637V69.9563C33.6252 68.6547 34.0975 67.3825 35.0422 66.1392C35.9867 64.896 37.1505 63.7683 38.5329 62.7558L42.7021 59.7211C44.092 58.7098 45.2713 57.597 46.2419 56.383C47.2116 55.1698 47.6967 53.9556 47.6967 52.7416C47.6967 51.5284 47.2985 50.4662 46.5025 49.5555C45.7058 48.6456 44.5407 48.1903 43.0062 48.1903C41.7034 48.1903 40.6461 48.55 39.8361 49.2684C39.0249 49.9872 38.6199 51.0505 38.6199 52.4586C38.6199 52.9189 38.3952 53.3217 37.9467 53.6666C37.4977 54.0115 36.9112 54.1838 36.1877 54.1838C34.798 54.1838 34.1032 53.3299 34.1032 51.6212C34.1032 49.363 34.9786 47.5173 36.7307 46.084C38.4821 44.6509 40.5741 43.9343 43.0062 43.9343C45.5828 43.9343 47.7763 44.7408 49.5861 46.3546C51.3951 47.9684 52.3005 50.0536 52.3005 52.6118C52.3005 54.3463 51.8154 55.9716 50.8456 57.4888C49.8751 59.0062 48.7026 60.2923 47.3276 61.3467C45.9521 62.402 44.5767 63.3987 43.2019 64.3379C41.8263 65.2771 40.654 66.2237 39.6841 67.1773C38.7136 68.1315 38.2292 69.0563 38.2292 69.952V71.599H50.9976C51.4028 71.599 51.7575 71.7945 52.0616 72.1853C52.3657 72.5763 52.5179 73.0474 52.5179 73.597C52.5179 74.1474 52.3665 74.6325 52.0646 75.0518C51.7626 75.472 51.4103 75.6818 51.0079 75.6818H35.6525C35.1923 75.6818 34.739 75.5371 34.294 75.2481C33.8478 74.959 33.6252 74.5979 33.6252 74.1637Z" fill="url(#paint16_linear)"/>
        <path d="M52.6913 66.8387C52.6913 66.5212 52.7782 66.203 52.9521 65.8847L63.4622 45.1923C63.8965 44.3537 64.5621 43.9344 65.46 43.9344C65.9517 43.9344 66.4589 44.1079 66.98 44.4555C67.501 44.8031 67.7618 45.2228 67.7618 45.715C67.7618 45.8886 67.689 46.1207 67.5444 46.41L58.5979 64.2595H64.9821V58.2318C64.9821 57.2123 65.7488 56.7028 67.2839 56.7028C67.9204 56.7028 68.4632 56.8344 68.9125 57.0964C69.3611 57.3584 69.5857 57.7369 69.5857 58.2319V64.2597H71.7138C72.2057 64.2597 72.589 64.4749 72.8645 64.9051C73.1393 65.3353 73.2771 65.8369 73.2771 66.4095C73.2771 66.9251 73.1176 67.4056 72.7993 67.8494C72.4805 68.2938 72.1187 68.5158 71.7136 68.5158H69.5856V74.1521C69.5856 74.619 69.3535 74.9902 68.8906 75.2672C68.427 75.5439 67.8917 75.682 67.2836 75.682C66.6465 75.682 66.1036 75.5442 65.655 75.2672C65.2057 74.9902 64.9818 74.619 64.9818 74.1521V68.5158H54.2982C53.8345 68.5158 53.4512 68.3658 53.1474 68.0646C52.8434 67.7631 52.6913 67.3546 52.6913 66.8387Z" fill="url(#paint17_linear)"/>
        <path d="M76.4246 34.6385H72.9136H72.7507C70.1995 16.9524 54.9454 3.31812 36.5642 3.31812C16.4025 3.31812 0 19.7205 0 39.882C0 48.2012 2.86946 56.3436 8.07976 62.8091C13.2115 69.1773 20.4033 73.6894 28.3301 75.5145C28.5471 75.5647 28.7639 75.5885 28.9776 75.5885C30.2865 75.5885 31.4699 74.6883 31.7762 73.3584C32.1323 71.8113 31.167 70.2686 29.6198 69.9125C22.943 68.3751 16.8832 64.5715 12.5561 59.2021C8.10275 53.676 5.74895 46.9954 5.74895 39.8823C5.74895 22.8907 19.5726 9.06722 36.5642 9.06722C51.7686 9.06722 64.4345 20.1362 66.9311 34.6387H63.899C61.609 34.6387 60.4623 37.4072 62.0815 39.0263L68.3444 45.2892C69.3481 46.2929 70.9756 46.2929 71.9793 45.2892L78.2422 39.0263C79.8613 37.4071 78.7144 34.6385 76.4246 34.6385Z" fill="url(#paint18_linear)"/>
    </g>
    <defs>
        <linearGradient id="paint0_linear" x1="37.9193" y1="41.2387" x2="77.9358" y2="81.2552" gradientUnits="userSpaceOnUse">
            <stop stop-color="white"/>
            <stop offset="1" stop-color="#C3C3C3"/>
        </linearGradient>
        <linearGradient id="paint1_linear" x1="48.9649" y1="40.7422" x2="16.0992" y2="37.0525" gradientUnits="userSpaceOnUse">
            <stop stop-color="#C3C3C3" stop-opacity="0"/>
            <stop offset="0.267" stop-color="#A4A4A4" stop-opacity="0.267"/>
            <stop offset="0.542" stop-color="#8B8B8B" stop-opacity="0.542"/>
            <stop offset="0.794" stop-color="#7C7C7C" stop-opacity="0.794"/>
            <stop offset="1" stop-color="#777777"/>
        </linearGradient>
        <linearGradient id="paint2_linear" x1="36.5638" y1="39.0361" x2="36.5638" y2="44.202" gradientUnits="userSpaceOnUse">
            <stop stop-color="#F18D00"/>
            <stop offset="1" stop-color="#ED7103"/>
        </linearGradient>
        <linearGradient id="paint3_linear" x1="42.0402" y1="36.3582" x2="43.5629" y2="41.1539" gradientUnits="userSpaceOnUse">
            <stop stop-color="#A7F3CE"/>
            <stop offset="1" stop-color="#61DB99"/>
        </linearGradient>
        <linearGradient id="paint4_linear" x1="30.058" y1="40.1627" x2="31.5806" y2="44.9584" gradientUnits="userSpaceOnUse">
            <stop stop-color="#A7F3CE"/>
            <stop offset="1" stop-color="#61DB99"/>
        </linearGradient>
        <linearGradient id="paint5_linear" x1="54.1828" y1="37.7529" x2="61.2849" y2="42.5485" gradientUnits="userSpaceOnUse">
            <stop stop-color="#A7F3CE"/>
            <stop offset="1" stop-color="#61DB99"/>
        </linearGradient>
        <linearGradient id="paint6_linear" x1="12.6345" y1="37.7528" x2="19.7366" y2="42.5485" gradientUnits="userSpaceOnUse">
            <stop stop-color="#A7F3CE"/>
            <stop offset="1" stop-color="#61DB99"/>
        </linearGradient>
        <linearGradient id="paint7_linear" x1="56.2244" y1="29.5535" x2="61.6923" y2="34.3491" gradientUnits="userSpaceOnUse">
            <stop stop-color="#A7F3CE"/>
            <stop offset="1" stop-color="#61DB99"/>
        </linearGradient>
        <linearGradient id="paint8_linear" x1="12.2817" y1="46.1575" x2="17.7481" y2="50.9532" gradientUnits="userSpaceOnUse">
            <stop stop-color="#A7F3CE"/>
            <stop offset="1" stop-color="#61DB99"/>
        </linearGradient>
        <linearGradient id="paint9_linear" x1="41.6605" y1="46.1545" x2="47.1253" y2="50.9501" gradientUnits="userSpaceOnUse">
            <stop stop-color="#A7F3CE"/>
            <stop offset="1" stop-color="#61DB99"/>
        </linearGradient>
        <linearGradient id="paint10_linear" x1="26.8454" y1="29.5527" x2="32.3133" y2="34.3484" gradientUnits="userSpaceOnUse">
            <stop stop-color="#A7F3CE"/>
            <stop offset="1" stop-color="#61DB99"/>
        </linearGradient>
        <linearGradient id="paint11_linear" x1="48.654" y1="46.9713" x2="35.2738" y2="32.2745" gradientUnits="userSpaceOnUse">
            <stop stop-color="#C3C3C3" stop-opacity="0"/>
            <stop offset="0.267" stop-color="#A4A4A4" stop-opacity="0.267"/>
            <stop offset="0.542" stop-color="#8B8B8B" stop-opacity="0.542"/>
            <stop offset="0.794" stop-color="#7C7C7C" stop-opacity="0.794"/>
            <stop offset="1" stop-color="#777777"/>
        </linearGradient>
        <linearGradient id="paint12_linear" x1="47.0557" y1="39.0921" x2="0.0765125" y2="43.7406" gradientUnits="userSpaceOnUse">
            <stop stop-color="#FFB92D"/>
            <stop offset="1" stop-color="#F59500"/>
        </linearGradient>
        <linearGradient id="paint13_linear" x1="40.9434" y1="48.7341" x2="45.5919" y2="66.2718" gradientUnits="userSpaceOnUse">
            <stop stop-color="#FFB92D"/>
            <stop offset="1" stop-color="#F59500"/>
        </linearGradient>
        <linearGradient id="paint14_linear" x1="36.5638" y1="38.339" x2="36.5638" y2="43.1347" gradientUnits="userSpaceOnUse">
            <stop stop-color="#A7F3CE"/>
            <stop offset="1" stop-color="#61DB99"/>
        </linearGradient>
        <linearGradient id="paint15_linear" x1="47.7119" y1="64.4658" x2="29.4602" y2="46.214" gradientUnits="userSpaceOnUse">
            <stop stop-color="#C3C3C3" stop-opacity="0"/>
            <stop offset="0.267" stop-color="#A4A4A4" stop-opacity="0.267"/>
            <stop offset="0.542" stop-color="#8B8B8B" stop-opacity="0.542"/>
            <stop offset="0.794" stop-color="#7C7C7C" stop-opacity="0.794"/>
            <stop offset="1" stop-color="#777777"/>
        </linearGradient>
        <linearGradient id="paint16_linear" x1="43.0705" y1="52.788" x2="43.0705" y2="71.2039" gradientUnits="userSpaceOnUse">
            <stop stop-color="#62E1FB"/>
            <stop offset="1" stop-color="#00A2F3"/>
        </linearGradient>
        <linearGradient id="paint17_linear" x1="62.9829" y1="52.788" x2="62.9829" y2="71.2039" gradientUnits="userSpaceOnUse">
            <stop stop-color="#62E1FB"/>
            <stop offset="1" stop-color="#00A2F3"/>
        </linearGradient>
        <linearGradient id="paint18_linear" x1="46.9789" y1="50.3099" x2="64.5165" y2="67.8476" gradientUnits="userSpaceOnUse">
            <stop stop-color="#FFB92D"/>
            <stop offset="1" stop-color="#F59500"/>
        </linearGradient>
        <clipPath id="clip0">
            <rect width="79" height="79" fill="white"/>
        </clipPath>
    </defs>
</svg>
