<svg width="36" height="50" viewBox="0 0 36 50" fill="none" xmlns="http://www.w3.org/2000/svg">
    <path d="M22.9775 28.2631L23.3064 28.4433L22.9775 28.2631ZM5.47282 44.8226C5.4083 45.0194 5.51553 45.2313 5.71233 45.2958L8.91935 46.3473C9.11615 46.4118 9.328 46.3045 9.39252 46.1077C9.45704 45.9109 9.34982 45.6991 9.15302 45.6346L6.30232 44.6999L7.23696 41.8492C7.30149 41.6524 7.19426 41.4406 6.99746 41.3761C6.80066 41.3116 6.58881 41.4188 6.52429 41.6156L5.47282 44.8226ZM24.2254 0.999999C23.8659 1.10676 23.8659 1.10673 23.8659 1.10671C23.8659 1.10672 23.8659 1.10671 23.8659 1.10673C23.8659 1.10676 23.8659 1.10684 23.866 1.10696C23.866 1.10719 23.8662 1.1076 23.8663 1.10817C23.8667 1.10931 23.8672 1.11113 23.8679 1.11362C23.8694 1.11859 23.8716 1.12623 23.8746 1.13649C23.8805 1.15701 23.8894 1.18802 23.901 1.22914C23.9242 1.31138 23.958 1.43408 24.0005 1.59425C24.0853 1.91463 24.2044 2.38484 24.3402 2.9812C24.6119 4.17413 24.9504 5.87055 25.2168 7.88098L25.9603 7.78245C25.6903 5.74507 25.3473 4.02563 25.0715 2.81465C24.9335 2.20906 24.8124 1.73031 24.7255 1.40221C24.682 1.23815 24.6471 1.11172 24.6229 1.02591C24.6109 0.983006 24.6015 0.95025 24.595 0.928015C24.5918 0.916897 24.5893 0.90841 24.5876 0.9026C24.5868 0.899694 24.5861 0.897458 24.5857 0.895897C24.5854 0.895116 24.5853 0.894504 24.5851 0.894061C24.5851 0.89384 24.585 0.893661 24.585 0.893525C24.5849 0.893457 24.5849 0.893386 24.5849 0.893352C24.5849 0.893292 24.5849 0.893243 24.2254 0.999999ZM24.9586 21.6432C24.4886 23.8815 23.7502 26.0715 22.6486 28.083L23.3064 28.4433C24.4501 26.355 25.2106 24.0927 25.6926 21.7973L24.9586 21.6432ZM22.6486 28.083C21.6574 29.8929 20.5292 31.5567 19.3359 33.0734L19.9254 33.5371C21.1413 31.9917 22.2931 30.2935 23.3064 28.4433L22.6486 28.083ZM10.6987 41.3732C9.24303 42.451 7.98007 43.2606 7.08231 43.8C6.63349 44.0697 6.27612 44.2718 6.0318 44.4061C5.90964 44.4732 5.81576 44.5233 5.75286 44.5565C5.72141 44.573 5.6977 44.5854 5.68208 44.5934C5.67427 44.5975 5.66848 44.6004 5.66475 44.6023C5.66289 44.6033 5.66154 44.604 5.66071 44.6044C5.6603 44.6046 5.66002 44.6048 5.65986 44.6048C5.65979 44.6049 5.65974 44.6049 5.65973 44.6049C5.65973 44.6049 5.65975 44.6049 5.65974 44.6049C5.65977 44.6049 5.6598 44.6049 5.82916 44.9394C5.99851 45.274 5.99856 45.274 5.99862 45.274C5.99865 45.274 5.99872 45.2739 5.99878 45.2739C5.9989 45.2738 5.99905 45.2737 5.99924 45.2737C5.99961 45.2735 6.00012 45.2732 6.00075 45.2729C6.00202 45.2722 6.00382 45.2713 6.00613 45.2701C6.01075 45.2678 6.01745 45.2643 6.02616 45.2598C6.0436 45.2508 6.06915 45.2376 6.10247 45.22C6.16911 45.1849 6.26684 45.1327 6.39294 45.0634C6.64515 44.9248 7.01094 44.7179 7.46861 44.4429C8.38384 43.8929 9.66723 43.0701 11.145 41.976L10.6987 41.3732ZM22.9775 28.2631L23.6353 28.6234L22.9775 28.2631ZM5.11648 44.7058C4.98744 45.0994 5.2019 45.5231 5.5955 45.6521L12.0096 47.7551C12.4032 47.8841 12.8268 47.6696 12.9559 47.276C13.0849 46.8824 12.8705 46.4588 12.4769 46.3297L6.77549 44.4604L8.64477 38.759C8.77382 38.3654 8.55936 37.9418 8.16576 37.8127C7.77216 37.6837 7.34847 37.8981 7.21943 38.2917L5.11648 44.7058ZM24.2254 0.999999C23.5064 1.21351 23.5064 1.21345 23.5064 1.21339C23.5064 1.21338 23.5064 1.21334 23.5064 1.21333C23.5064 1.21331 23.5064 1.21334 23.5064 1.2134C23.5064 1.21353 23.5065 1.21384 23.5067 1.2143C23.5069 1.21524 23.5074 1.21685 23.5081 1.21913C23.5094 1.22368 23.5115 1.23089 23.5144 1.24073C23.5201 1.26039 23.5287 1.29052 23.54 1.33075C23.5627 1.41121 23.596 1.53204 23.638 1.69028C23.7218 2.00678 23.8398 2.47274 23.9745 3.06447C24.2442 4.24838 24.5804 5.93329 24.8451 7.93024L26.3321 7.73318C26.0603 5.68233 25.7149 3.95137 25.4371 2.73138C25.2981 2.12116 25.1759 1.63815 25.088 1.30618C25.044 1.14018 25.0086 1.0119 24.9839 0.9243C24.9716 0.8805 24.9619 0.846869 24.9553 0.823778C24.9519 0.812231 24.9493 0.80332 24.9475 0.79709C24.9466 0.793974 24.9459 0.791529 24.9453 0.78976C24.9451 0.788876 24.9449 0.78816 24.9447 0.787614C24.9446 0.787341 24.9446 0.787111 24.9445 0.786923C24.9445 0.786829 24.9444 0.78672 24.9444 0.786673C24.9444 0.786575 24.9444 0.786486 24.2254 0.999999ZM24.5916 21.5661C24.1276 23.7759 23.4003 25.9298 22.3197 27.9029L23.6353 28.6234C24.8 26.4967 25.5716 24.1983 26.0596 21.8744L24.5916 21.5661ZM22.3197 27.9029C21.3395 29.6927 20.2232 31.3392 19.0412 32.8415L20.2201 33.769C21.4474 32.2091 22.611 30.4938 23.6353 28.6234L22.3197 27.9029ZM10.4756 41.0718C9.03093 42.1414 7.77818 42.9444 6.88916 43.4786C6.44476 43.7457 6.09161 43.9453 5.85123 44.0774C5.73105 44.1434 5.63909 44.1925 5.57806 44.2247C5.54754 44.2408 5.52475 44.2526 5.51004 44.2602C5.50268 44.264 5.49734 44.2668 5.49406 44.2684C5.49242 44.2693 5.4913 44.2699 5.49069 44.2702C5.49039 44.2703 5.49022 44.2704 5.49018 44.2704C5.49015 44.2704 5.49017 44.2704 5.49021 44.2704C5.49023 44.2704 5.49029 44.2704 5.4903 44.2704C5.49037 44.2703 5.49044 44.2703 5.82916 44.9394C6.16787 45.6086 6.16796 45.6086 6.16806 45.6085C6.1681 45.6085 6.16821 45.6084 6.1683 45.6084C6.16848 45.6083 6.16869 45.6082 6.16893 45.6081C6.16941 45.6078 6.17003 45.6075 6.17077 45.6071C6.17227 45.6064 6.17428 45.6053 6.17682 45.604C6.18189 45.6015 6.18903 45.5978 6.19821 45.5931C6.21655 45.5836 6.24302 45.5698 6.27728 45.5518C6.34578 45.5157 6.44543 45.4624 6.57352 45.3921C6.82967 45.2513 7.19966 45.042 7.66176 44.7643C8.58572 44.2091 9.87932 43.3797 11.3681 42.2774L10.4756 41.0718Z" fill="#7B7B7B"/>
</svg>
