<svg width="24" height="56" viewBox="0 0 24 56" fill="none" xmlns="http://www.w3.org/2000/svg">
    <path d="M19.0726 25.8801L19.3194 25.8403L19.0726 25.8801ZM14.9031 54.2027C14.9497 54.3327 15.0928 54.4003 15.2228 54.3537L17.3409 53.5947C17.4709 53.5481 17.5385 53.405 17.4919 53.275C17.4453 53.145 17.3022 53.0774 17.1722 53.124L15.2895 53.7987L14.6148 51.916C14.5682 51.786 14.4251 51.7184 14.2951 51.7649C14.1651 51.8115 14.0975 51.9547 14.1441 52.0846L14.9031 54.2027ZM0.999966 3.13965C0.887501 3.36292 0.887484 3.36291 0.887472 3.36291C0.887475 3.36291 0.887468 3.3629 0.887473 3.36291C0.887484 3.36291 0.887514 3.36293 0.887564 3.36295C0.887664 3.363 0.887843 3.36309 0.8881 3.36322C0.888615 3.36348 0.889444 3.3639 0.890585 3.36448C0.892866 3.36564 0.896392 3.36744 0.901144 3.36987C0.910649 3.37473 0.925052 3.38214 0.944186 3.39209C0.982457 3.41198 1.03965 3.44204 1.11442 3.4822C1.26395 3.56254 1.48377 3.68332 1.76309 3.84418C2.32177 4.16592 3.11826 4.64786 4.06642 5.28712L4.34593 4.87254C3.38684 4.22592 2.58023 3.73777 2.01262 3.41089C1.72879 3.24744 1.50466 3.12427 1.35105 3.04174C1.27423 3.00048 1.21504 2.96937 1.17483 2.94846C1.15472 2.938 1.13935 2.9301 1.1289 2.92475C1.12367 2.92207 1.11967 2.92004 1.11692 2.91864C1.11554 2.91794 1.11448 2.91741 1.11373 2.91703C1.11336 2.91684 1.11306 2.91669 1.11284 2.91658C1.11274 2.91652 1.11265 2.91648 1.11258 2.91645C1.11254 2.91643 1.11251 2.91641 1.11249 2.9164C1.11246 2.91639 1.11243 2.91637 0.999966 3.13965ZM9.87113 9.9715C11.5414 11.583 13.2161 13.4805 14.6728 15.6563L15.0883 15.3781C13.6082 13.1673 11.909 11.2429 10.2183 9.61167L9.87113 9.9715ZM17.95 22.3104C18.3259 23.4634 18.6237 24.6668 18.8258 25.9199L19.3194 25.8403C19.113 24.5605 18.8089 23.332 18.4254 22.1554L17.95 22.3104ZM18.8258 25.9199C19.2192 28.3601 19.3757 30.762 19.3625 33.0718L19.8625 33.0747C19.8758 30.7404 19.7177 28.3108 19.3194 25.8403L18.8258 25.9199ZM17.3009 47.2529C16.7178 49.3391 16.1196 51.0309 15.6677 52.2004C15.4417 52.7851 15.2524 53.2391 15.1197 53.5463C15.0534 53.6999 15.0013 53.8168 14.9659 53.8951C14.9482 53.9342 14.9347 53.9636 14.9257 53.9831C14.9212 53.9929 14.9178 54.0001 14.9156 54.0049C14.9144 54.0073 14.9136 54.009 14.9131 54.0102C14.9128 54.0107 14.9126 54.0111 14.9125 54.0114C14.9125 54.0115 14.9124 54.0116 14.9124 54.0116C14.9124 54.0116 14.9124 54.0116 14.9124 54.0116C14.9124 54.0116 14.9124 54.0116 15.1385 54.1184C15.3645 54.2252 15.3645 54.2251 15.3646 54.2251C15.3646 54.2251 15.3646 54.225 15.3646 54.2249C15.3647 54.2248 15.3648 54.2247 15.3648 54.2245C15.365 54.2241 15.3653 54.2235 15.3656 54.2228C15.3663 54.2214 15.3673 54.2193 15.3685 54.2167C15.371 54.2113 15.3747 54.2034 15.3795 54.193C15.3891 54.1723 15.4032 54.1416 15.4215 54.1012C15.458 54.0204 15.5113 53.9008 15.5788 53.7445C15.7138 53.4317 15.9056 52.9718 16.1341 52.3806C16.5909 51.1985 17.1944 49.4913 17.7824 47.3875L17.3009 47.2529ZM19.0726 25.8801L19.5662 25.8005L19.0726 25.8801ZM14.6678 54.2871C14.7609 54.547 15.0472 54.6822 15.3071 54.5891L19.5433 53.071C19.8033 52.9778 19.9385 52.6916 19.8454 52.4316C19.7522 52.1717 19.4659 52.0365 19.206 52.1296L15.4405 53.479L14.0911 49.7135C13.9979 49.4536 13.7116 49.3183 13.4517 49.4115C13.1917 49.5047 13.0565 49.7909 13.1497 50.0509L14.6678 54.2871ZM0.999966 3.13965C0.775035 3.5862 0.774997 3.58618 0.774963 3.58616C0.774958 3.58616 0.77493 3.58614 0.77492 3.58614C0.774902 3.58613 0.774903 3.58613 0.774924 3.58614C0.774965 3.58616 0.775086 3.58622 0.775285 3.58632C0.775684 3.58652 0.776395 3.58688 0.777418 3.5874C0.779464 3.58844 0.782755 3.59012 0.787269 3.59243C0.796298 3.59704 0.810219 3.6042 0.828867 3.6139C0.866163 3.63329 0.922356 3.66282 0.996101 3.70243C1.1436 3.78167 1.36126 3.90126 1.63833 4.06082C2.19255 4.37999 2.98397 4.85883 3.92666 5.49441L4.48568 4.66526C3.52113 4.01494 2.70945 3.5237 2.13738 3.19425C1.8513 3.0295 1.62502 2.90514 1.46936 2.82151C1.39153 2.7797 1.33134 2.74806 1.29015 2.72664C1.26955 2.71594 1.2537 2.70778 1.24277 2.70219C1.23731 2.69939 1.23307 2.69724 1.23008 2.69572C1.22859 2.69496 1.22741 2.69437 1.22654 2.69393C1.22611 2.69371 1.22576 2.69353 1.22548 2.69339C1.22535 2.69332 1.22523 2.69326 1.22513 2.69321C1.22508 2.69319 1.22502 2.69316 1.225 2.69315C1.22495 2.69312 1.2249 2.6931 0.999966 3.13965ZM9.69755 10.1514C11.3576 11.753 13.0201 13.6371 14.4651 15.7954L15.296 15.2391C13.8042 13.0107 12.0928 11.0728 10.3919 9.43176L9.69755 10.1514ZM17.7123 22.3879C18.0843 23.5291 18.379 24.7199 18.5789 25.9597L19.5662 25.8005C19.3577 24.5074 19.0504 23.2663 18.6631 22.078L17.7123 22.3879ZM18.5789 25.9597C18.97 28.3848 19.1256 30.7728 19.1125 33.0704L20.1125 33.0761C20.1259 30.7296 19.967 28.2861 19.5662 25.8005L18.5789 25.9597ZM17.0601 47.1856C16.4795 49.2629 15.884 50.9472 15.4345 52.1103C15.2098 52.6918 15.0216 53.1428 14.8902 53.4472C14.8245 53.5995 14.773 53.7151 14.7382 53.792C14.7208 53.8305 14.7075 53.8593 14.6988 53.8782C14.6944 53.8876 14.6912 53.8946 14.6891 53.899C14.688 53.9013 14.6873 53.9029 14.6868 53.9038C14.6866 53.9043 14.6865 53.9046 14.6864 53.9048C14.6863 53.9049 14.6863 53.9049 14.6863 53.9049C14.6863 53.9049 14.6863 53.9049 14.6863 53.9049C14.6863 53.9049 14.6864 53.9048 15.1385 54.1184C15.5906 54.3319 15.5906 54.3319 15.5906 54.3318C15.5906 54.3318 15.5907 54.3317 15.5907 54.3316C15.5908 54.3314 15.5909 54.3313 15.591 54.331C15.5912 54.3306 15.5915 54.3299 15.5919 54.3291C15.5926 54.3276 15.5937 54.3254 15.595 54.3225C15.5976 54.3169 15.6014 54.3087 15.6064 54.298C15.6163 54.2766 15.6307 54.2453 15.6492 54.2043C15.6864 54.1222 15.7402 54.0013 15.8083 53.8435C15.9445 53.528 16.1376 53.0651 16.3673 52.4708C16.8266 51.2823 17.4327 49.5674 18.0232 47.4548L17.0601 47.1856Z" fill="#7B7B7B"/>
</svg>
