<svg width="97" height="88" viewBox="0 0 97 88" fill="none" xmlns="http://www.w3.org/2000/svg">
    <path d="M55.6586 54.8533L55.9035 55.1372L55.6586 54.8533ZM8.36702 75.2436C8.23764 75.4053 8.26386 75.6413 8.42559 75.7706L11.061 77.879C11.2227 78.0084 11.4587 77.9821 11.5881 77.8204C11.7175 77.6587 11.6913 77.4227 11.5295 77.2933L9.18693 75.4192L11.061 73.0766C11.1904 72.9149 11.1642 72.6789 11.0024 72.5495C10.8407 72.4202 10.6047 72.4464 10.4754 72.6081L8.36702 75.2436ZM78.6598 1.00006C78.2857 0.974112 78.2857 0.974097 78.2857 0.974089C78.2857 0.974096 78.2857 0.974095 78.2857 0.97411C78.2857 0.974136 78.2857 0.974192 78.2857 0.974277C78.2857 0.974444 78.2857 0.974725 78.2856 0.975119C78.2856 0.975907 78.2855 0.977147 78.2854 0.978835C78.2851 0.982213 78.2848 0.987385 78.2843 0.994333C78.2832 1.00823 78.2817 1.02923 78.2795 1.05719C78.2752 1.11309 78.2685 1.19679 78.2592 1.30704C78.2404 1.52755 78.2108 1.85426 78.1675 2.2772C78.0809 3.12312 77.9396 4.35389 77.7211 5.8899L78.4637 5.9955C78.6836 4.44889 78.8261 3.20833 78.9136 2.35358C78.9573 1.9262 78.9873 1.59523 79.0065 1.37066C79.016 1.25837 79.0228 1.17267 79.0273 1.11481C79.0295 1.08588 79.0312 1.06392 79.0323 1.04906C79.0328 1.04163 79.0332 1.03599 79.0335 1.03214C79.0336 1.03021 79.0337 1.02874 79.0338 1.02771C79.0338 1.0272 79.0339 1.0268 79.0339 1.02652C79.0339 1.02637 79.0339 1.02626 79.0339 1.02617C79.0339 1.02613 79.0339 1.02609 79.0339 1.02607C79.0339 1.02603 79.0339 1.026 78.6598 1.00006ZM75.8986 15.6705C75.2153 18.6402 74.3461 21.8909 73.2444 25.2575L73.9572 25.4908C75.0669 22.0996 75.9419 18.827 76.6295 15.8386L75.8986 15.6705ZM69.6642 34.5251C68.3167 37.5008 66.7649 40.4505 64.9791 43.2682L65.6126 43.6697C67.4197 40.8184 68.9877 37.8372 70.3474 34.8344L69.6642 34.5251ZM58.9704 51.1325C57.8495 52.3398 56.6651 53.4896 55.4136 54.5693L55.9035 55.1372C57.1772 54.0384 58.3815 52.8692 59.52 51.6427L58.9704 51.1325ZM55.4136 54.5693C54.3139 55.5181 53.1967 56.4242 52.067 57.2897L52.5231 57.8851C53.6639 57.0111 54.7924 56.0958 55.9035 55.1372L55.4136 54.5693ZM44.9474 62.1503C42.4129 63.6912 39.869 65.0555 37.3688 66.2624L37.6948 66.9378C40.2149 65.7214 42.7801 64.3457 45.3371 62.7912L44.9474 62.1503ZM29.4365 69.6651C26.5128 70.7723 23.7479 71.6661 21.2455 72.3841L21.4523 73.105C23.9725 72.3819 26.7571 71.4817 29.7021 70.3665L29.4365 69.6651ZM12.8539 74.4117C11.5166 74.6718 10.4556 74.8454 9.72997 74.9539C9.36714 75.0081 9.08818 75.046 8.90045 75.0703C8.80659 75.0825 8.73554 75.0912 8.68823 75.0969C8.66457 75.0998 8.64685 75.1018 8.63518 75.1032C8.62935 75.1039 8.62502 75.1044 8.62223 75.1047C8.62083 75.1048 8.61981 75.105 8.61918 75.105C8.61886 75.1051 8.61864 75.1051 8.61851 75.1051C8.61846 75.1051 8.61841 75.1051 8.6184 75.1051C8.61839 75.1051 8.6184 75.1051 8.6184 75.1051C8.61841 75.1051 8.61843 75.1051 8.65984 75.4778C8.70126 75.8505 8.70129 75.8505 8.70132 75.8505C8.70135 75.8505 8.70139 75.8505 8.70143 75.8505C8.70151 75.8505 8.70162 75.8505 8.70175 75.8505C8.70201 75.8504 8.70237 75.8504 8.70282 75.8503C8.70373 75.8502 8.70502 75.8501 8.70669 75.8499C8.71004 75.8495 8.71491 75.849 8.7213 75.8482C8.73408 75.8468 8.75291 75.8446 8.7777 75.8416C8.82726 75.8356 8.9006 75.8266 8.9968 75.8141C9.18918 75.7892 9.47299 75.7506 9.84082 75.6956C10.5765 75.5857 11.6483 75.4103 12.9971 75.1479L12.8539 74.4117ZM55.6586 54.8533L56.1485 55.4212L55.6586 54.8533ZM8.07419 75.0093C7.81544 75.3327 7.86788 75.8047 8.19133 76.0635L13.4622 80.2801C13.7857 80.5389 14.2576 80.4865 14.5164 80.163C14.7751 79.8396 14.7227 79.3676 14.3992 79.1088L9.71402 75.3607L13.4622 70.6755C13.7209 70.352 13.6685 69.88 13.345 69.6213C13.0216 69.3625 12.5496 69.415 12.2909 69.7384L8.07419 75.0093ZM78.6598 1.00006C77.9116 0.948167 77.9116 0.94813 77.9116 0.948101C77.9116 0.948101 77.9116 0.948077 77.9116 0.948077C77.9116 0.948075 77.9116 0.948101 77.9116 0.948156C77.9116 0.948265 77.9116 0.948488 77.9116 0.948824C77.9115 0.949494 77.9114 0.950615 77.9113 0.952186C77.9111 0.955326 77.9107 0.96026 77.9103 0.966969C77.9093 0.980389 77.9077 1.00091 77.9056 1.02837C77.9014 1.0833 77.8948 1.166 77.8855 1.27524C77.8669 1.49371 77.8375 1.81828 77.7944 2.23901C77.7083 3.08052 77.5676 4.30639 77.3499 5.83709L78.8349 6.0483C79.0556 4.49639 79.1987 3.25094 79.2866 2.39177C79.3306 1.96217 79.3608 1.62907 79.3801 1.40246C79.3897 1.28915 79.3967 1.20246 79.4012 1.14363C79.4035 1.11421 79.4051 1.09176 79.4063 1.07643C79.4068 1.06876 79.4072 1.06287 79.4075 1.05879C79.4077 1.05674 79.4078 1.05515 79.4079 1.05401C79.4079 1.05344 79.4079 1.05298 79.408 1.05264C79.408 1.05246 79.408 1.05232 79.408 1.0522C79.408 1.05215 79.408 1.05208 79.408 1.05205C79.408 1.052 79.408 1.05194 78.6598 1.00006ZM75.5332 15.5864C74.852 18.5468 73.9857 21.7865 72.888 25.1409L74.3136 25.6074C75.4273 22.204 76.3053 18.9203 76.995 15.9227L75.5332 15.5864ZM69.3226 34.3704C67.9812 37.3326 66.4375 40.2666 64.6623 43.0674L65.9293 43.8704C67.7471 41.0023 69.3232 38.0055 70.689 34.9891L69.3226 34.3704ZM58.6955 50.8773C57.5835 52.0752 56.4091 53.2153 55.1686 54.2854L56.1485 55.4212C57.4333 54.3127 58.6475 53.1338 59.7949 51.8979L58.6955 50.8773ZM55.1686 54.2854C54.0746 55.2292 52.9631 56.1308 51.8389 56.992L52.7512 58.1828C53.8975 57.3045 55.0317 56.3846 56.1485 55.4212L55.1686 54.2854ZM44.7526 61.8299C42.2292 63.364 39.6961 64.7226 37.2058 65.9247L37.8579 67.2755C40.3878 66.0543 42.9637 64.6729 45.5319 63.1116L44.7526 61.8299ZM29.3037 69.3144C26.3906 70.4175 23.6357 71.3082 21.1421 72.0236L21.5557 73.4654C24.0847 72.7399 26.8792 71.8365 29.8349 70.7172L29.3037 69.3144ZM12.7823 74.0436C11.4508 74.3026 10.3952 74.4753 9.67454 74.583C9.31422 74.6368 9.03767 74.6744 8.85227 74.6984C8.75958 74.7104 8.68968 74.7191 8.6435 74.7246C8.6204 74.7274 8.60324 74.7294 8.59212 74.7307C8.58656 74.7313 8.58252 74.7318 8.57999 74.7321C8.57873 74.7322 8.57785 74.7323 8.57735 74.7324C8.57711 74.7324 8.57695 74.7324 8.5769 74.7324C8.57687 74.7324 8.57687 74.7324 8.57689 74.7324C8.5769 74.7324 8.57693 74.7324 8.57693 74.7324C8.57697 74.7324 8.57702 74.7324 8.65984 75.4778C8.74267 76.2232 8.74273 76.2232 8.74279 76.2232C8.74282 76.2232 8.74289 76.2232 8.74295 76.2232C8.74307 76.2232 8.7432 76.2232 8.74337 76.2232C8.7437 76.2231 8.74412 76.2231 8.74464 76.223C8.74569 76.2229 8.74711 76.2227 8.74892 76.2225C8.75255 76.2221 8.7577 76.2215 8.76436 76.2208C8.77769 76.2192 8.79709 76.2169 8.82243 76.2139C8.87312 76.2078 8.94761 76.1986 9.04497 76.186C9.23969 76.1608 9.52592 76.1218 9.89625 76.0665C10.6369 75.9558 11.7141 75.7795 13.0687 75.516L12.7823 74.0436Z" fill="#7B7B7B"/>
</svg>
