<svg width="260" height="74" viewBox="0 0 260 74" fill="none" xmlns="http://www.w3.org/2000/svg">
    <g clip-path="url(#clip0)">
        <path d="M30.1783 60.3225C36.0831 60.3225 41.8553 58.562 46.765 55.2637C51.6747 51.9653 55.5014 47.2773 57.7611 41.7923C60.0207 36.3074 60.612 30.2719 59.46 24.4492C58.308 18.6264 55.4646 13.2778 51.2892 9.07983C47.1139 4.88184 41.7941 2.02297 36.0028 0.864752C30.2114 -0.293471 24.2085 0.300967 18.7531 2.5729C13.2977 4.84484 8.63497 8.69222 5.35442 13.6285C2.07386 18.5648 0.322859 24.3684 0.322859 30.3052C0.322859 38.2663 3.46834 45.9013 9.06731 51.5306C14.6663 57.1599 22.2601 60.3225 30.1783 60.3225Z" fill="#FFD200"/>
        <path d="M124.981 57.8966H116.906C116.875 57.8968 116.845 57.8846 116.822 57.8627L109.868 49.3179L102.909 57.8627C102.9 57.873 102.888 57.8814 102.875 57.8872C102.862 57.8931 102.848 57.8962 102.834 57.8966H96.3587C96.3383 57.896 96.3186 57.8899 96.3014 57.8789C96.2843 57.8679 96.2705 57.8524 96.2614 57.8341C96.2548 57.8171 96.2527 57.7986 96.2553 57.7805C96.2579 57.7625 96.2651 57.7454 96.2762 57.7309L106.528 45.0775L96.3965 32.5408C96.384 32.5242 96.376 32.5045 96.3734 32.4838C96.3708 32.463 96.3736 32.442 96.3816 32.4227C96.3909 32.4067 96.4036 32.3929 96.4188 32.3823C96.4339 32.3717 96.4512 32.3646 96.4694 32.3616H104.547C104.563 32.3622 104.578 32.367 104.592 32.3756C104.606 32.3842 104.617 32.3962 104.625 32.4105L110.732 40.0166L116.947 32.4105C116.954 32.3964 116.966 32.3847 116.98 32.3766C116.993 32.3685 117.009 32.3642 117.025 32.3643H123.611C123.63 32.3673 123.648 32.3742 123.664 32.3847C123.68 32.3953 123.694 32.4091 123.704 32.4254C123.711 32.445 123.714 32.4661 123.711 32.4868C123.708 32.5075 123.699 32.527 123.686 32.5436L114.072 44.1525L125.055 57.735C125.068 57.7486 125.076 57.7654 125.08 57.7836C125.084 57.8018 125.083 57.8206 125.077 57.8382C125.069 57.8562 125.056 57.8716 125.039 57.8826C125.023 57.8936 125.004 57.8999 124.985 57.9007" fill="#00355F"/>
        <path d="M168.688 36.8615C165.117 36.8615 162.669 39.0469 161.973 42.8378H174.141V42.5865C174.164 41.8486 174.04 41.1135 173.778 40.4241C173.515 39.7348 173.118 39.105 172.61 38.5716C172.103 38.0382 171.494 37.6119 170.821 37.3175C170.148 37.0232 169.423 36.8668 168.688 36.8574V36.8615ZM180.414 46.7223C180.404 46.7373 180.391 46.7498 180.376 46.759C180.36 46.7681 180.343 46.7737 180.325 46.7753H161.841C162.228 51.0986 165.021 53.5665 169.541 53.5665C172.332 53.5665 175.288 52.6158 179.465 50.3828C179.481 50.3727 179.499 50.3673 179.518 50.3672C179.537 50.3671 179.556 50.3722 179.572 50.382C179.588 50.3919 179.601 50.406 179.61 50.4229C179.619 50.4399 179.623 50.4589 179.621 50.4779L179.612 56.1975C179.612 56.2155 179.606 56.2329 179.595 56.2471C179.584 56.2613 179.568 56.2715 179.551 56.2762C176.134 57.874 172.45 58.8147 168.688 59.0498C165.032 59.0498 161.525 57.5893 158.939 54.9896C156.354 52.3899 154.901 48.864 154.901 45.1875C154.901 41.511 156.354 37.9851 158.939 35.3854C161.525 32.7857 165.032 31.3253 168.688 31.3253C175.947 31.3253 180.616 36.2435 180.616 43.0062C180.616 44.0928 180.425 46.6436 180.414 46.7251" fill="#00355F"/>
        <path d="M217.962 27.0902C216.88 27.0974 215.839 26.6723 215.068 25.9083C214.297 25.1442 213.859 24.1037 213.851 23.0155C213.851 21.9189 214.284 20.8673 215.056 20.0919C215.827 19.3165 216.873 18.881 217.963 18.881C219.054 18.881 220.1 19.3165 220.871 20.0919C221.642 20.8673 222.076 21.9189 222.076 23.0155C222.066 24.1036 221.628 25.1437 220.857 25.9076C220.086 26.6714 219.046 27.0967 217.963 27.0902H217.962ZM214.64 57.8966C214.626 57.8982 214.612 57.8968 214.599 57.8924C214.586 57.888 214.574 57.8808 214.564 57.8711C214.554 57.8615 214.547 57.8498 214.542 57.8368C214.537 57.8238 214.535 57.8099 214.536 57.7961V32.4675C214.537 32.4434 214.545 32.4201 214.56 32.401C214.575 32.382 214.595 32.3682 214.618 32.3616H221.293C221.317 32.3671 221.338 32.3806 221.354 32.3998C221.369 32.4191 221.377 32.4429 221.377 32.4675V57.7961C221.378 57.8092 221.376 57.8224 221.371 57.8348C221.367 57.8471 221.36 57.8584 221.35 57.8679C221.341 57.8773 221.33 57.8848 221.318 57.8897C221.306 57.8947 221.293 57.897 221.28 57.8966H214.64Z" fill="#00355F"/>
        <path d="M137.19 54.0841C135.888 54.0756 134.593 53.8929 133.339 53.5407L133.352 37.2798C134.812 36.7854 136.34 36.5233 137.881 36.5029C142.505 36.5029 145.612 39.9325 145.612 45.03C145.612 50.5282 142.306 54.08 137.189 54.08L137.19 54.0841ZM139.006 31.3226C137.034 31.3398 135.078 31.6897 133.221 32.3575H126.58C126.567 32.3578 126.554 32.3608 126.542 32.3665C126.53 32.3721 126.52 32.3802 126.511 32.3902C126.503 32.4002 126.496 32.4119 126.493 32.4245C126.489 32.4371 126.488 32.4504 126.49 32.4635V73.996C128.957 73.6634 131.307 72.7345 133.339 71.289V58.6573C134.759 58.8895 136.194 59.0198 137.633 59.0471C146.728 59.0471 152.616 53.5611 152.616 45.0735C152.616 36.9769 147.016 31.3226 139.007 31.3226" fill="#00355F"/>
        <path d="M202.483 51.9801C200.749 52.9786 198.798 53.5345 196.801 53.5992C192.681 53.5992 190.211 50.6694 190.211 45.7675C190.211 40.0982 193.364 36.4296 198.236 36.4296C199.711 36.4621 201.162 36.8216 202.483 37.4822V51.9801ZM202.483 18.9516V32.2108C200.733 31.6826 198.916 31.4082 197.089 31.3959C195.253 31.3537 193.427 31.6863 191.722 32.3735C190.017 33.0606 188.468 34.0881 187.169 35.3939C185.87 36.6997 184.848 38.2567 184.165 39.9708C183.481 41.6849 183.15 43.5205 183.192 45.3668C183.192 53.2976 188.461 59.0525 195.72 59.0525C198.394 59.0107 201.016 58.3027 203.35 56.992V59.278C205.508 58.8718 207.552 57.9992 209.342 56.7204V16.2446C206.866 16.557 204.508 17.4912 202.486 18.9611" fill="#00355F"/>
        <path d="M244.501 51.9285C242.925 52.9581 241.109 53.5543 239.232 53.6576C234.824 53.6576 232.174 50.7427 232.174 45.8218C232.174 40.2326 235.292 36.4825 239.919 36.4825C241.543 36.5964 243.117 37.0958 244.512 37.9399L244.501 51.9285ZM251.364 32.0573C251.361 31.982 251.33 31.9105 251.276 31.858C251.223 31.8055 251.151 31.7761 251.076 31.7762L245.683 31.7857C245.606 31.7853 245.532 31.8149 245.476 31.8684C245.42 31.9218 245.388 31.9949 245.384 32.0723V32.9972H245.249C243.152 31.9919 240.866 31.4443 238.543 31.3904C231.081 31.3904 225.225 37.6166 225.225 45.5909C225.225 53.6467 230.467 59.0471 238.258 59.0471C239.622 59.1607 240.992 58.9445 242.255 58.4166C243.519 57.8887 244.638 57.0645 245.519 56.0127V59.2725C247.62 58.8363 249.607 57.9633 251.353 56.7095L251.364 32.0573Z" fill="#00355F"/>
        <path d="M77.8888 51.5605H94.6403C94.3442 53.8194 93.5448 55.982 92.3018 57.8871H74.8749C73.8507 57.8808 72.865 57.4937 72.1078 56.8003C71.3505 56.1069 70.8752 55.1563 70.7735 54.1316C70.7654 54.0976 70.7519 54.0664 70.7478 54.0406V20.8057C70.7539 20.7773 70.7624 20.7496 70.7735 20.7228C70.8732 19.6956 71.3472 18.7418 72.1044 18.0449C72.8616 17.348 73.8484 16.9574 74.8749 16.9482C74.9411 16.9482 75.01 16.9577 75.0654 16.9577H94.6092C94.312 19.2343 93.5126 21.4154 92.2694 23.3415H77.8888V32.3874H92.1262C92.1393 32.3871 92.1524 32.3893 92.1646 32.394C92.1769 32.3988 92.1881 32.4058 92.1977 32.4149C92.2072 32.424 92.2149 32.4349 92.2202 32.447C92.2256 32.459 92.2285 32.472 92.2289 32.4852V38.7631C92.2272 38.7895 92.2157 38.8143 92.1967 38.8327C92.1777 38.851 92.1525 38.8616 92.1262 38.8622H77.8888V51.5713V51.5605Z" fill="#00355F"/>
        <path d="M56.9117 58.4074C56.333 58.4524 55.7544 58.321 55.2511 58.0303C54.7479 57.7396 54.3436 57.3031 54.091 56.7777C53.8383 56.2524 53.7491 55.6627 53.835 55.0856C53.9208 54.5085 54.1778 53.9709 54.5722 53.5429C54.9667 53.1149 55.4804 52.8164 56.0462 52.6864C56.612 52.5565 57.2036 52.6011 57.7438 52.8144C58.284 53.0278 58.7476 53.3999 59.0742 53.8823C59.4007 54.3647 59.5751 54.9348 59.5744 55.5183C59.601 55.8868 59.5521 56.2568 59.4305 56.6054C59.3089 56.954 59.1172 57.2737 58.8675 57.5446C58.6178 57.8156 58.3153 58.032 57.9788 58.1804C57.6423 58.3288 57.2791 58.4061 56.9117 58.4074ZM56.9117 52.2952C56.2766 52.2809 55.6517 52.4571 55.1167 52.8013C54.5816 53.1456 54.1606 53.6422 53.9075 54.2279C53.6543 54.8137 53.5803 55.462 53.6951 56.0901C53.8098 56.7183 54.108 57.2978 54.5517 57.7549C54.9954 58.2119 55.5644 58.5258 56.1861 58.6564C56.8079 58.787 57.4543 58.7285 58.0429 58.4882C58.6315 58.248 59.1355 57.837 59.4908 57.3075C59.8461 56.7781 60.0365 56.1543 60.0377 55.5156C60.0506 55.0958 59.9792 54.6776 59.8276 54.2861C59.6761 53.8946 59.4476 53.5378 59.1557 53.2372C58.8639 52.9366 58.5147 52.6982 58.1291 52.5363C57.7436 52.3745 57.3295 52.2925 56.9117 52.2952Z" fill="#00355F"/>
        <path d="M56.1592 55.2562V54.084H56.9482C57.3534 54.084 57.8182 54.1438 57.8182 54.6273C57.8182 55.2059 57.3791 55.2508 56.8901 55.2508L56.1592 55.2562ZM58.4004 54.7129C58.4004 53.9428 57.9303 53.6168 57.0198 53.6168H55.5783V57.428H56.2052V55.7981H56.7847L57.7668 57.428H58.4639L57.4021 55.7533C57.5367 55.756 57.6705 55.7306 57.7949 55.6787C57.9193 55.6268 58.0316 55.5495 58.1248 55.4518C58.218 55.354 58.29 55.2378 58.3363 55.1107C58.3826 54.9835 58.4021 54.8481 58.3936 54.7129" fill="#00355F"/>
        <path d="M256.874 36.579C256.295 36.6246 255.716 36.4936 255.212 36.2032C254.708 35.9128 254.303 35.4764 254.05 34.951C253.796 34.4256 253.706 33.8355 253.791 33.2579C253.877 32.6803 254.133 32.142 254.527 31.7131C254.921 31.2843 255.435 30.9848 256.001 30.8539C256.567 30.723 257.159 30.7667 257.7 30.9792C258.241 31.1918 258.705 31.5634 259.033 32.0456C259.361 32.5277 259.536 33.0979 259.537 33.6818C259.563 34.0506 259.514 34.4211 259.393 34.7701C259.271 35.1191 259.08 35.4393 258.83 35.7109C258.581 35.9825 258.278 36.1997 257.942 36.349C257.605 36.4983 257.242 36.5766 256.874 36.579ZM256.874 30.4669C256.239 30.4526 255.614 30.6288 255.079 30.9732C254.543 31.3176 254.122 31.8145 253.869 32.4005C253.616 32.9865 253.543 33.635 253.658 34.2632C253.773 34.8915 254.071 35.4711 254.515 35.928C254.959 36.3849 255.529 36.6984 256.151 36.8286C256.773 36.9587 257.42 36.8996 258.008 36.6587C258.597 36.4179 259.1 36.0062 259.455 35.4762C259.81 34.9462 260 34.322 260 33.6832C260.012 33.2636 259.94 32.8459 259.789 32.4549C259.637 32.0639 259.408 31.7076 259.117 31.4074C258.825 31.1072 258.476 30.8692 258.09 30.7076C257.705 30.546 257.291 30.4641 256.874 30.4669Z" fill="#00355F"/>
        <path d="M256.119 33.417V32.2502H256.902C257.308 32.2502 257.775 32.3059 257.775 32.7935C257.775 33.3721 257.341 33.417 256.852 33.417H256.119ZM258.357 32.8737C258.357 32.1076 257.887 31.787 256.975 31.787H255.539V35.5902H256.161V33.9603H256.742L257.722 35.5902H258.428L257.368 33.9209C257.503 33.9234 257.637 33.8978 257.761 33.8456C257.886 33.7935 257.998 33.7159 258.091 33.6178C258.184 33.5198 258.256 33.4033 258.301 33.2759C258.347 33.1485 258.366 33.0129 258.357 32.8777" fill="#00355F"/>
        <path d="M35.2942 23.3021L34.0784 19.8453L23.7695 5.99122L25.6243 5.53077L43.3971 20.9727L53.8532 17.9615C55.0626 17.6842 56.3011 17.5565 57.5412 17.5811C54.4843 10.9595 49.1549 5.66838 42.5309 2.67873C35.9069 -0.310914 28.4328 -0.798519 21.4801 1.30542C14.5274 3.40936 8.56252 7.96369 4.68019 14.1326C0.797847 20.3016 -0.74155 27.6713 0.344497 34.8893L25.3933 26.1422L35.2942 23.3021Z" fill="#00355F"/>
        <path d="M58.6449 20.3167C57.5227 21.0722 56.3104 21.6828 55.0366 22.134L44.5548 25.1439L37.5638 47.7125L35.7468 48.3088L37.2247 31.0686L36.3993 27.4896L26.5781 30.308L0.618725 36.4459C1.44864 40.5178 3.10202 44.3749 5.47626 47.7776C7.85051 51.1804 10.895 54.0563 14.4207 56.2269C17.9464 58.3974 21.8782 59.8163 25.972 60.3954C30.0659 60.9746 34.2344 60.7017 38.219 59.5937C42.2035 58.4856 45.9191 56.5661 49.1351 53.9542C52.3511 51.3423 54.9989 48.0938 56.9143 44.4102C58.8296 40.7266 59.9715 36.6866 60.2692 32.5408C60.567 28.395 60.0141 24.2319 58.6449 20.3099" fill="#00355F"/>
    </g>
    <defs>
        <clipPath id="clip0">
            <rect width="260" height="74" fill="white"/>
        </clipPath>
    </defs>
</svg>
