<svg width="259" height="81" viewBox="0 0 259 81" fill="none" xmlns="http://www.w3.org/2000/svg">
    <path d="M136.498 20.3514C136.498 23.2703 134.152 25.6216 131.239 25.6216C128.326 25.6216 125.98 23.2703 125.98 20.3514C125.98 17.4324 128.245 15.0811 131.239 15.0811C134.233 15.1622 136.498 17.5135 136.498 20.3514ZM114.814 30.973C114.814 31.4595 114.814 32.2703 114.814 32.2703C114.814 32.2703 112.306 29.027 106.965 29.027C98.1459 29.027 91.2684 35.7568 91.2684 45.0811C91.2684 54.3243 98.065 61.1351 106.965 61.1351C112.386 61.1351 114.814 57.8108 114.814 57.8108V59.1892C114.814 59.8378 115.299 60.3243 115.947 60.3243H122.501V29.8378C122.501 29.8378 116.513 29.8378 115.947 29.8378C115.299 29.8378 114.814 30.4054 114.814 30.973ZM114.814 50.5135C113.6 52.2973 111.173 53.8378 108.26 53.8378C103.082 53.8378 99.1169 50.5946 99.1169 45.0811C99.1169 39.5676 103.082 36.3243 108.26 36.3243C111.092 36.3243 113.681 37.9459 114.814 39.6487V50.5135ZM127.355 29.8378H135.123V60.3243H127.355V29.8378ZM243.383 29.027C238.043 29.027 235.535 32.2703 235.535 32.2703V15.1622H227.767V60.3243C227.767 60.3243 233.755 60.3243 234.321 60.3243C234.968 60.3243 235.454 59.7568 235.454 59.1892V57.8108C235.454 57.8108 237.962 61.1351 243.302 61.1351C252.122 61.1351 258.999 54.3243 258.999 45.0811C258.999 35.8378 252.122 29.027 243.383 29.027ZM242.089 53.7568C239.095 53.7568 236.749 52.2162 235.535 50.4324V39.5676C236.749 37.9459 239.338 36.2432 242.089 36.2432C247.267 36.2432 251.232 39.4865 251.232 45C251.232 50.5135 247.267 53.7568 242.089 53.7568ZM223.722 42.2432V60.4054H215.954V43.1351C215.954 38.1081 214.336 36.0811 209.967 36.0811C207.62 36.0811 205.193 37.2973 203.655 39.0811V60.3243H195.888V29.8378H202.037C202.685 29.8378 203.17 30.4054 203.17 30.973V32.2703C205.436 29.9189 208.429 29.027 211.423 29.027C214.821 29.027 217.653 30 219.919 31.9459C222.67 34.2162 223.722 37.1351 223.722 42.2432ZM177.035 29.027C171.695 29.027 169.187 32.2703 169.187 32.2703V15.1622H161.419V60.3243C161.419 60.3243 167.407 60.3243 167.973 60.3243C168.62 60.3243 169.106 59.7568 169.106 59.1892V57.8108C169.106 57.8108 171.614 61.1351 176.954 61.1351C185.774 61.1351 192.651 54.3243 192.651 45.0811C192.732 35.8378 185.855 29.027 177.035 29.027ZM175.741 53.7568C172.747 53.7568 170.401 52.2162 169.187 50.4324V39.5676C170.401 37.9459 172.99 36.2432 175.741 36.2432C180.919 36.2432 184.884 39.4865 184.884 45C184.884 50.5135 180.919 53.7568 175.741 53.7568ZM154.704 29.027C157.05 29.027 158.264 29.4324 158.264 29.4324V36.6486C158.264 36.6486 151.791 34.4595 147.745 39.0811V60.4054H139.978V29.8378C139.978 29.8378 145.965 29.8378 146.531 29.8378C147.179 29.8378 147.664 30.4054 147.664 30.973V32.2703C149.121 30.5676 152.276 29.027 154.704 29.027ZM74.0341 57.5676C73.6295 56.5946 73.225 55.5405 72.8204 54.6487C72.1731 53.1892 71.5258 51.8108 70.9594 50.5135L70.8785 50.4324C65.2956 38.2703 59.3081 25.9459 52.9969 13.7838L52.7542 13.2973C52.1069 12.0811 51.4596 10.7838 50.8123 9.48649C50.0032 8.02703 49.194 6.48649 47.8995 5.02703C45.3103 1.78378 41.5883 0 37.6236 0C33.578 0 29.9369 1.78378 27.2668 4.86486C26.0532 6.32432 25.1631 7.86486 24.354 9.32432C23.7067 10.6216 23.0594 11.9189 22.4121 13.1351L22.1694 13.6216C15.9391 25.7838 9.87071 38.1081 4.28777 50.2703L4.20685 50.4324C3.64047 51.7297 2.99317 53.1081 2.34587 54.5676C1.94131 55.4595 1.53675 56.4324 1.13219 57.4865C0.0803307 60.4865 -0.243318 63.3243 0.161243 66.2432C1.05128 72.3243 5.09689 77.4324 10.6798 79.7027C12.7835 80.5946 14.9682 81 17.2337 81C17.881 81 18.6901 80.9189 19.3374 80.8378C22.0075 80.5135 24.7586 79.6216 27.4287 78.0811C30.7461 76.2162 33.9016 73.5405 37.4618 69.6487C41.0219 73.5405 44.2584 76.2162 47.4949 78.0811C50.165 79.6216 52.916 80.5135 55.5861 80.8378C56.2334 80.9189 57.0425 81 57.6898 81C59.9554 81 62.2209 80.5946 64.2437 79.7027C69.9076 77.4324 73.8723 72.2432 74.7623 66.2432C75.4096 63.4054 75.086 60.5676 74.0341 57.5676ZM37.5427 61.7838C33.1734 56.2703 30.3415 51.0811 29.3706 46.7027C28.966 44.8378 28.8851 43.2162 29.1278 41.7568C29.2896 40.4595 29.7751 39.3243 30.4224 38.3513C31.9597 36.1622 34.5489 34.7838 37.5427 34.7838C40.5364 34.7838 43.2065 36.0811 44.663 38.3513C45.3103 39.3243 45.7957 40.4595 45.9576 41.7568C46.2003 43.2162 46.1194 44.9189 45.7148 46.7027C44.7439 51 41.9119 56.1892 37.5427 61.7838ZM69.8267 65.5946C69.2603 69.8108 66.4283 73.4595 62.4636 75.0811C60.5218 75.8919 58.418 76.1351 56.3143 75.8919C54.2915 75.6486 52.2687 75 50.165 73.7838C47.2522 72.1622 44.3393 69.6487 40.941 65.9189C46.2812 59.3514 49.5177 53.3514 50.7314 48C51.2978 45.4865 51.3787 43.2162 51.1359 41.1081C50.8123 39.0811 50.0841 37.2162 48.9513 35.5946C46.443 31.9459 42.2356 29.8378 37.5427 29.8378C32.8498 29.8378 28.6423 32.027 26.1341 35.5946C25.0013 37.2162 24.2731 39.0811 23.9494 41.1081C23.6258 43.2162 23.7067 45.5676 24.354 48C25.5677 53.3514 28.8851 59.4324 34.1444 66C30.827 69.7297 27.8332 72.2432 24.9204 73.8649C22.8167 75.0811 20.7939 75.7297 18.7711 75.973C16.5864 76.2162 14.4827 75.8919 12.6217 75.1622C8.65703 73.5405 5.8251 69.8919 5.25871 65.6757C5.01598 63.6486 5.1778 61.6216 5.98692 59.3513C6.22966 58.5405 6.63422 57.7297 7.03878 56.7568C7.60517 55.4595 8.25246 54.0811 8.89976 52.7027L8.98067 52.5405C14.5636 40.4595 20.5511 28.1351 26.7814 16.1351L27.0241 15.6486C27.6714 14.4324 28.3187 13.1351 28.966 11.9189C29.6133 10.6216 30.3415 9.40541 31.2315 8.35135C32.9307 6.40541 35.1962 5.35135 37.7045 5.35135C40.2128 5.35135 42.4783 6.40541 44.1775 8.35135C45.0675 9.40541 45.7957 10.6216 46.443 11.9189C47.0903 13.1351 47.7376 14.4324 48.3849 15.6486L48.6277 16.1351C54.777 28.2162 60.7645 40.5405 66.3474 52.6216V52.7027C66.9947 54 67.5611 55.4595 68.2084 56.7568C68.613 57.7297 69.0175 58.5405 69.2603 59.3513C69.9076 61.4595 70.1503 63.4865 69.8267 65.5946Z" fill="#FF5A5F"/>
</svg>
