<svg width="250" height="38" viewBox="0 0 250 38" fill="none" xmlns="http://www.w3.org/2000/svg">
    <path fill-rule="evenodd" clip-rule="evenodd" d="M8.69901 6.34995C13.425 5.73995 26.834 5.31995 23.16 24.6959L27.327 24.3569C25.502 12.4139 29.32 6.32395 41.2579 5.73995C21.458 -5.22504 10.184 6.15795 8.69901 6.34995Z" fill="#FAC415"/>
    <path fill-rule="evenodd" clip-rule="evenodd" d="M27.132 21.628C28.774 26.071 33.0349 29.039 37.7719 29.039C43.9939 29.039 49.1149 23.918 49.1149 17.696C49.1149 11.473 43.9939 6.35199 37.7719 6.35199C36.4299 6.35199 35.0999 6.58999 33.8409 7.05499C28.005 9.21298 24.977 15.79 27.132 21.628Z" fill="white"/>
    <path d="M12.626 28.9959C18.8916 28.9959 23.971 23.9166 23.971 17.6509C23.971 11.3853 18.8916 6.30597 12.626 6.30597C6.36033 6.30597 1.28101 11.3853 1.28101 17.6509C1.28101 23.9166 6.36033 28.9959 12.626 28.9959Z" fill="white"/>
    <path d="M12.463 19.637C13.6211 19.637 14.56 18.6981 14.56 17.54C14.56 16.3819 13.6211 15.443 12.463 15.443C11.3048 15.443 10.366 16.3819 10.366 17.54C10.366 18.6981 11.3048 19.637 12.463 19.637Z" fill="#EE6946"/>
    <path d="M37.7449 19.636C38.9025 19.636 39.8409 18.6976 39.8409 17.54C39.8409 16.3824 38.9025 15.444 37.7449 15.444C36.5873 15.444 35.6489 16.3824 35.6489 17.54C35.6489 18.6976 36.5873 19.636 37.7449 19.636Z" fill="#00AF87"/>
    <path fill-rule="evenodd" clip-rule="evenodd" d="M47.8979 10.1799C48.4259 8.36694 49.2649 6.65995 50.3789 5.13595L41.9599 5.12895C36.9259 1.97695 31.0819 0.354955 25.144 0.460955C19.06 0.330955 13.067 1.97395 7.89999 5.18895L0 5.19295C1.104 6.70594 1.939 8.39794 2.469 10.1939C0.875999 12.3579 0.016 14.9769 0.016 17.6649C0.016 24.5789 5.70499 30.2679 12.619 30.2679C16.446 30.2679 20.072 28.5239 22.462 25.5339L25.147 29.5539L27.858 25.4999C30.247 28.5499 33.9129 30.3339 37.7869 30.3339C44.7059 30.3339 50.3999 24.6399 50.3999 17.7209C50.3999 15.0039 49.5219 12.3579 47.8979 10.1799ZM37.3699 5.09395C30.9609 5.27995 25.67 10.3399 25.197 16.7339C24.72 10.2779 19.351 5.18295 12.879 5.04495C16.764 3.43095 20.937 2.61995 25.144 2.65995C29.3449 2.59695 33.5129 3.42595 37.3699 5.09395ZM12.626 27.7189H12.625C7.10099 27.7189 2.556 23.1739 2.556 17.6499C2.556 12.1249 7.10099 7.57994 12.625 7.57994C18.149 7.57994 22.695 12.1249 22.695 17.6499V17.6519C22.688 23.1729 18.147 27.7129 12.626 27.7189ZM41.2599 27.1479C36.0779 29.0579 30.2409 26.3689 28.325 21.1879V21.1849C27.914 20.0689 27.703 18.8899 27.703 17.7009C27.703 12.1759 32.2489 7.63094 37.7729 7.63094C43.2979 7.63094 47.8429 12.1759 47.8429 17.7009C47.8429 21.9079 45.2069 25.6909 41.2599 27.1479ZM12.471 11.3089H12.462C9.04298 11.3089 6.23099 14.1219 6.23099 17.5399C6.23099 20.9589 9.04298 23.7709 12.462 23.7709C15.88 23.7709 18.693 20.9589 18.693 17.5399V17.5389C18.687 14.1269 15.883 11.3189 12.471 11.3089ZM12.471 21.6249H12.463C10.222 21.6249 8.37699 19.7809 8.37699 17.5399C8.37699 15.2989 10.222 13.4549 12.463 13.4549C14.703 13.4549 16.547 15.2989 16.548 17.5389C16.543 19.7759 14.707 21.6149 12.471 21.6249ZM37.7449 11.3089H37.7419C34.3229 11.3089 31.5109 14.1219 31.5109 17.5399C31.5109 20.9589 34.3229 23.7709 37.7419 23.7709C41.1599 23.7709 43.9729 20.9589 43.9729 17.5399V17.5389C43.9679 14.1239 41.1599 11.3149 37.7449 11.3089ZM37.7449 21.6249H37.7429C35.5019 21.6249 33.6579 19.7809 33.6579 17.5399C33.6579 15.2989 35.5019 13.4549 37.7429 13.4549C39.9839 13.4549 41.8279 15.2989 41.8289 17.5389C41.8259 19.7789 39.9839 21.6209 37.7449 21.6249Z" fill="black"/>
    <path fill-rule="evenodd" clip-rule="evenodd" d="M178.929 3.71198C178.929 5.04398 180.026 6.13897 181.357 6.13897C182.69 6.13897 183.786 5.04298 183.786 3.71098C183.786 2.37798 182.69 1.28198 181.358 1.28198C180.025 1.28398 178.929 2.37998 178.929 3.71198Z" fill="#00AF87"/>
    <path fill-rule="evenodd" clip-rule="evenodd" d="M63.5669 3.54401L59.8879 4.812V9.618H55.8059V12.84H59.7699V23.183C59.7699 28.107 61.4489 30.113 65.5609 30.113C66.5879 30.116 67.6109 29.982 68.6029 29.713L68.7639 29.67L68.7179 26.333L68.4349 26.432C67.8189 26.678 67.1659 26.821 66.5039 26.855C64.5729 26.855 63.8539 25.763 63.8539 22.83V12.84H68.5649V9.618H63.8539V3.44501L63.5669 3.54401ZM76.3009 12.881V9.618H72.5699V29.761H76.6529V19.65C76.6529 15.409 78.4319 13.074 81.6609 13.074C82.1589 13.079 82.6549 13.156 83.1309 13.302L83.3989 13.378L83.5309 9.399L81.7759 9.264C79.3999 9.278 77.2469 10.701 76.3009 12.881ZM105.449 9.146C102.707 9.125 100.148 10.549 98.7188 12.889V9.618H94.9868V37.9679H99.0718V26.975C100.503 28.974 102.838 30.136 105.295 30.072C110.459 30.072 113.795 25.843 113.795 19.296C113.795 13.225 110.442 9.146 105.449 9.146ZM104.313 26.775C101.082 26.775 99.0718 24.015 99.0718 19.57C99.0718 15.29 101.192 12.524 104.471 12.524C107.629 12.524 109.514 15.143 109.514 19.533C109.514 24 107.521 26.775 104.313 26.775Z" fill="black"/>
    <path fill-rule="evenodd" clip-rule="evenodd" d="M125.727 9.14598C123.417 9.10598 121.129 9.59798 119.039 10.582L118.912 10.641L118.958 14.127L119.276 13.949C120.905 12.958 122.762 12.4 124.667 12.328C127.624 12.328 129.319 14.024 129.319 16.981V17.154H126.985C120.261 17.154 116.561 19.589 116.561 24.009C116.561 27.556 119.23 30.035 123.057 30.035C125.629 30.1309 128.084 28.933 129.593 26.848V29.761H133.287V17.567C133.287 11.979 130.745 9.14598 125.727 9.14598ZM129.319 21.259C129.319 24.731 127.232 26.97 123.998 26.97L123.763 26.979C122.051 26.979 120.642 25.571 120.642 23.859L120.643 23.81C120.643 21.367 122.978 20.023 127.219 20.023H129.319V21.259ZM150.638 0V12.352C149.222 10.282 146.844 9.07098 144.337 9.14598C139.347 9.14598 135.995 13.257 135.995 19.374C135.995 25.674 139.392 30.072 144.259 30.072C147.007 30.1409 149.582 28.695 150.952 26.312V29.761H154.723V0H150.638V0ZM145.321 26.695C142.208 26.695 140.275 23.981 140.275 19.61C140.275 15.234 142.225 12.407 145.241 12.407C148.621 12.407 150.638 15.1 150.638 19.61C150.638 23.915 148.55 26.695 145.321 26.695ZM172.975 9.61798L167.18 21.243L161.829 9.61798H157.225L167.098 29.761L177.239 9.61798H172.975ZM183.191 9.61798H179.321V29.761H183.408V9.61798H183.191ZM188.196 14.782C188.196 17.618 190.144 19.109 193.736 20.863C196.003 21.978 197.189 22.633 197.189 24.204C197.189 25.811 195.73 26.855 193.477 26.855C191.691 26.808 189.939 26.359 188.351 25.539L188.051 25.394L187.915 28.943L188.058 29.001C189.734 29.6609 191.519 29.9979 193.321 29.996C198.316 29.996 201.545 27.615 201.545 23.929C201.545 20.855 199.5 19.299 195.963 17.646C193.367 16.431 192.282 15.716 192.282 14.428C192.282 13.199 193.489 12.407 195.361 12.407C197.055 12.408 198.728 12.79 200.255 13.525L200.547 13.664L200.732 10.185L200.567 10.135C198.955 9.64698 197.281 9.39398 195.597 9.38098C191.17 9.38098 188.196 11.551 188.196 14.782ZM214.284 9.14598C208.145 9.14598 204.332 13.186 204.332 19.689C204.332 26.193 208.145 30.233 214.284 30.233C220.448 30.233 224.279 26.193 224.279 19.689C224.279 13.186 220.448 9.14598 214.284 9.14598ZM214.323 26.894C210.933 26.894 208.651 23.981 208.651 19.65C208.651 15.295 210.933 12.368 214.323 12.368C217.771 12.368 219.998 15.224 219.998 19.65C219.998 24.05 217.771 26.894 214.323 26.894ZM231.815 12.881V9.61798H228.085V29.761H232.168V19.65C232.168 15.409 233.949 13.074 237.175 13.074C237.673 13.079 238.169 13.155 238.645 13.302L238.914 13.378L239.047 9.39898L237.292 9.26398C234.916 9.27898 232.762 10.701 231.815 12.881Z" fill="#00AF87"/>
    <path fill-rule="evenodd" clip-rule="evenodd" d="M90.8118 9.61797H86.9408V29.7609H91.0278V9.61797H90.8118ZM86.5468 3.71198C86.5478 5.04498 87.6438 6.14097 88.9768 6.14097C90.3098 6.14097 91.4058 5.04398 91.4058 3.71098C91.4058 2.37898 90.3098 1.28198 88.9768 1.28198C87.6448 1.28398 86.5488 2.37998 86.5468 3.71198Z" fill="black"/>
    <path fill-rule="evenodd" clip-rule="evenodd" d="M248.979 6.77098C249.645 7.45198 250.013 8.37098 250 9.32298C250.015 10.299 249.623 11.238 248.919 11.913C248.233 12.587 247.31 12.968 246.348 12.975C245.369 12.975 244.432 12.573 243.757 11.863C243.087 11.188 242.71 10.275 242.708 9.32298C242.711 8.33598 243.11 7.39098 243.816 6.69998C244.488 6.03198 245.4 5.65998 246.348 5.66898C247.339 5.65798 248.292 6.05698 248.979 6.77098ZM244.278 7.17098C243.702 7.73898 243.379 8.51498 243.379 9.32298C243.392 10.949 244.722 12.285 246.348 12.303C247.137 12.302 247.895 11.993 248.46 11.443C249.612 10.292 249.629 8.40298 248.499 7.23098C247.94 6.65098 247.166 6.32498 246.36 6.32998C245.581 6.31798 244.83 6.62198 244.278 7.17098ZM246.418 7.23998C247.569 7.23998 248.15 7.65198 248.15 8.40098C248.156 8.91498 247.8 9.36798 247.299 9.48298L248.188 11.242H246.98L246.229 9.65298H245.907V11.242H244.808V7.23998H246.418ZM245.907 9.00198H246.3C246.78 9.00198 247.019 8.83098 247.019 8.48198C247.019 8.09198 246.769 7.93198 246.24 7.93198H245.907V9.00198Z" fill="#00AF87" fill-opacity="0.5"/>
</svg>
