<svg width="260" height="43" viewBox="0 0 260 43" fill="none" xmlns="http://www.w3.org/2000/svg">
    <path d="M101.982 3.9435C101.982 1.76335 103.75 0 105.926 0C108.11 0 109.885 1.76335 109.885 3.9435C109.885 6.12082 108.11 7.88604 105.926 7.88604C103.75 7.88604 101.982 6.12082 101.982 3.9435Z" fill="#273B7D"/>
    <path d="M164.331 30.1733C164.331 27.9923 166.098 26.2271 168.274 26.2271C170.457 26.2271 172.232 27.9923 172.232 30.1733C172.232 32.3488 170.457 34.1159 168.274 34.1159C166.098 34.1159 164.331 32.3488 164.331 30.1733Z" fill="#499FDD"/>
    <path d="M37.128 28.4689C33.7247 28.4689 31.3597 25.7786 31.3597 21.9341C31.3597 18.0906 33.7247 15.4021 37.128 15.4021C40.5509 15.4021 42.942 18.0906 42.942 21.9341C42.942 25.8393 40.6007 28.4689 37.128 28.4689ZM37.128 9.65881C29.9279 9.65881 24.7026 14.8227 24.7026 21.9341C24.7026 29.0455 29.9279 34.2085 37.128 34.2085C44.3551 34.2085 49.6022 29.0455 49.6022 21.9341C49.6022 14.8227 44.3551 9.65881 37.128 9.65881Z" fill="#273B7D"/>
    <path d="M94.3291 22.548C94.0492 22.0237 93.7284 21.5799 93.3866 21.2276L93.1689 20.9977L93.3979 20.779C93.7284 20.4323 94.0663 20.0212 94.3921 19.5446L100.746 10.1428H93.0327L88.2586 17.4971C87.9884 17.8915 87.4427 18.0906 86.6259 18.0906H85.5378V4.18645C85.5378 1.40544 83.7972 1.02698 81.9169 1.02698H78.6977L78.7032 33.8468H85.5378V24.002H86.1782C86.9573 24.002 87.4878 24.0918 87.7311 24.5132L91.5015 31.5965C92.5547 33.5188 93.6043 33.8468 95.5788 33.8468H100.816L96.9156 27.4241L94.3291 22.548" fill="#273B7D"/>
    <path d="M127.509 9.60645C124.033 9.60645 121.814 11.1436 120.571 12.4435L120.156 12.8612L120.01 12.2931C119.645 10.9007 118.414 10.1344 116.562 10.1344H113.498L113.518 33.8384H120.306V22.9134C120.306 21.8453 120.445 20.9183 120.729 20.0726C121.485 17.5131 123.592 15.9216 126.227 15.9216C128.346 15.9216 129.174 17.0346 129.174 19.9109V30.235C129.174 32.6899 130.315 33.8384 132.783 33.8384H136.013L136.002 18.7625C136.002 12.7725 133.067 9.60645 127.511 9.60645" fill="#273B7D"/>
    <path d="M106.017 10.1447H102.799L102.821 28.4726H102.819V33.844H106.254C106.297 33.844 106.331 33.8487 106.375 33.8487L107.974 33.844H109.567V33.8347H109.578L109.591 13.7434C109.591 11.3194 108.427 10.1447 106.019 10.1447" fill="#273B7D"/>
    <path d="M63.7916 28.4689C60.3886 28.4689 58.0189 25.7786 58.0189 21.9341C58.0189 18.0906 60.3886 15.4021 63.7916 15.4021C67.2073 15.4021 69.6051 18.0906 69.6051 21.9341C69.6051 25.8393 67.2646 28.4689 63.7916 28.4689ZM63.7916 9.65881C56.5844 9.65881 51.3579 14.8227 51.3579 21.9341C51.3579 29.0455 56.5844 34.2085 63.7916 34.2085C71.0113 34.2085 76.2669 29.0455 76.2669 21.9341C76.2669 14.8227 71.0113 9.65881 63.7916 9.65881Z" fill="#273B7D"/>
    <path d="M209.298 28.4689C205.896 28.4689 203.525 25.7786 203.525 21.9341C203.525 18.0906 205.896 15.4021 209.298 15.4021C212.714 15.4021 215.113 18.0906 215.113 21.9341C215.113 25.8393 212.771 28.4689 209.298 28.4689ZM209.298 9.65881C202.092 9.65881 196.866 14.8227 196.866 21.9341C196.866 29.0455 202.092 34.2085 209.298 34.2085C216.518 34.2085 221.773 29.0455 221.773 21.9341C221.773 14.8227 216.518 9.65881 209.298 9.65881Z" fill="#499FDD"/>
    <path d="M150.315 27.426C146.604 27.426 145.283 24.203 145.283 21.1827C145.283 19.852 145.621 15.5151 149.959 15.5151C152.114 15.5151 154.987 16.13 154.987 21.4061C154.987 26.3821 152.445 27.426 150.315 27.426ZM158.512 10.0811C157.223 10.0811 156.232 10.5923 155.735 11.5258L155.548 11.8884L155.233 11.6165C154.137 10.6727 152.173 9.55316 148.982 9.55316C142.635 9.55316 138.361 14.2984 138.361 21.3603C138.361 28.4137 142.783 33.3431 149.11 33.3431C151.271 33.3431 152.979 32.8413 154.333 31.8208L154.857 31.4293V32.0881C154.857 35.2541 152.8 37.0006 149.071 37.0006C147.259 37.0006 145.609 36.5614 144.506 36.1633C143.066 35.7307 142.222 36.0886 141.638 37.5267L141.099 38.8537L140.337 40.7918L140.809 41.0422C143.195 42.3029 146.302 43.0551 149.11 43.0551C154.891 43.0551 161.642 40.1096 161.642 31.8208L161.666 10.0811H158.513" fill="#273B7D"/>
    <path d="M11.847 28.1969L6.32115 28.1914V21.6155C6.32115 20.2101 6.86851 19.4793 8.07853 19.3111H11.847C14.5367 19.3111 16.2746 20.9997 16.2765 23.7311C16.2746 26.5346 14.5799 28.1952 11.847 28.197V28.1969ZM6.32115 10.4577V8.72704C6.32115 7.21226 6.9651 6.49178 8.37821 6.39925H11.2058C13.6308 6.39925 15.0833 7.84397 15.0833 10.2605C15.0833 12.1033 14.089 14.2535 11.295 14.2535H6.32115V10.4577ZM18.9043 17.0205L17.9053 16.4617L18.7774 15.7197C19.7915 14.8516 21.4916 12.9004 21.4916 9.52883C21.4916 4.37049 17.4716 1.04095 11.2498 1.04095H4.14962V1.03888H3.3411C1.49649 1.10618 0.0206393 2.59945 0 4.44692V33.7269H3.25854C3.2668 33.729 3.26955 33.7269 3.2723 33.729L11.3902 33.7269C18.3066 33.7269 22.7707 29.9797 22.7707 24.1756C22.7707 21.0507 21.3279 18.379 18.9029 17.0203" fill="#273B7D"/>
    <path d="M252.097 9.68311C249.28 9.68311 246.557 10.996 244.809 13.1977L244.317 13.8182L243.931 13.1238C242.674 10.8418 240.51 9.68311 237.501 9.68311C234.346 9.68311 232.23 11.4352 231.247 12.4772L230.603 13.1706L230.356 12.2585C229.997 10.9456 228.823 10.2223 227.044 10.2223H224.19L224.163 33.8347H230.646V23.4115C230.646 22.4985 230.759 21.5949 230.989 20.6501C231.609 18.1317 233.309 15.4227 236.168 15.6937C237.931 15.8619 238.792 17.2178 238.792 19.8371V33.8347H245.32V23.4115C245.32 22.2705 245.428 21.4164 245.686 20.5595C246.212 18.1551 247.987 15.6899 250.745 15.6899C252.741 15.6899 253.479 16.815 253.479 19.8371V30.3827C253.479 32.7684 254.548 33.8347 256.943 33.8347H259.995L260 18.7606C260 12.7388 257.336 9.68311 252.095 9.68311" fill="#499FDD"/>
    <path d="M193.112 25.6365C193.093 25.6598 190.303 28.5876 186.631 28.5876C183.285 28.5876 179.904 26.5439 179.904 21.9817C179.904 18.0429 182.525 15.2899 186.277 15.2899C187.495 15.2899 188.881 15.7245 189.098 16.4552L189.13 16.5786C189.629 18.2354 191.142 18.3242 191.439 18.3242L194.991 18.3278V15.2375C194.991 11.1613 189.782 9.68298 186.277 9.68298C178.781 9.68298 173.342 14.8777 173.342 22.0312C173.342 29.1818 178.722 34.3691 186.14 34.3691C192.575 34.3691 196.075 30.1583 196.108 30.1163L196.295 29.8883L193.482 25.2439L193.112 25.6364" fill="#499FDD"/>
</svg>
