<svg width="49" height="49" viewBox="0 0 49 49" fill="none" xmlns="http://www.w3.org/2000/svg">
    <path d="M29.7063 48.0043L6.37762 40.7049C1.75086 39.2573 -0.826295 34.333 0.621381 29.7062L7.92074 6.37749C9.36842 1.75073 14.2927 -0.826426 18.9195 0.621249L42.2482 7.92061C46.8749 9.36829 49.4521 14.2926 48.0044 18.9194L40.7051 42.2481C39.2574 46.8748 34.3331 49.452 29.7063 48.0043Z" fill="url(#paint0_linear)"/>
    <path d="M40.705 42.2481L44.6384 29.6773L40.0751 20.9579C39.3261 19.3852 37.9506 18.1164 36.157 17.5552C32.7389 16.4857 29.1009 18.3896 28.0314 21.8077C27.4703 23.6013 27.7288 25.4547 28.5941 26.9665L38.4916 45.8782C39.4851 44.9003 40.2597 43.6714 40.705 42.2481Z" fill="url(#paint1_linear)"/>
    <path d="M29.7063 48.0043C32.8896 49.0003 36.2137 48.0911 38.4495 45.9199L22.509 15.4616C21.76 13.8889 20.3845 12.62 18.5909 12.0588C15.1728 10.9893 11.5348 12.8933 10.4653 16.3114C9.90416 18.1049 10.1627 19.9584 11.028 21.4702L23.9765 46.2115L29.7063 48.0043Z" fill="url(#paint2_linear)"/>
    <path d="M2.06693 25.0862L0.621362 29.7062C-0.826316 34.333 1.75084 39.2573 6.3776 40.7049L29.7063 48.0043C34.3331 49.452 39.2574 46.8748 40.705 42.2481L42.1506 37.628L2.06693 25.0862Z" fill="url(#paint3_linear)"/>
    <path d="M41.7936 16.8759L14.2574 8.26005C13.6078 8.05678 13.2459 7.36532 13.4492 6.71565L14.0334 4.84846C14.2367 4.19879 14.9281 3.83691 15.5778 4.04019L43.114 12.656C43.7636 12.8593 44.1255 13.5508 43.9222 14.2004L43.338 16.0676C43.1347 16.7173 42.4433 17.0792 41.7936 16.8759Z" fill="url(#paint4_linear)"/>
    <path d="M41.7936 16.8759L14.2574 8.26005C13.6078 8.05678 13.2459 7.36532 13.4492 6.71565L14.0334 4.84846C14.2367 4.19879 14.9281 3.83691 15.5778 4.04019L43.114 12.656C43.7636 12.8593 44.1255 13.5508 43.9222 14.2004L43.338 16.0676C43.1347 16.7173 42.4433 17.0792 41.7936 16.8759Z" fill="url(#paint5_linear)"/>
    <path d="M14.6678 24.3213C18.086 25.3908 21.7239 23.4868 22.7934 20.0687C23.8629 16.6506 21.959 13.0126 18.5409 11.9431C15.1227 10.8736 11.4848 12.7775 10.4153 16.1957C9.34575 19.6138 11.2497 23.2518 14.6678 24.3213Z" fill="url(#paint6_linear)"/>
    <path d="M14.6678 24.3213C18.086 25.3908 21.7239 23.4868 22.7934 20.0687C23.8629 16.6506 21.959 13.0126 18.5409 11.9431C15.1227 10.8736 11.4848 12.7775 10.4153 16.1957C9.34575 19.6138 11.2497 23.2518 14.6678 24.3213Z" fill="url(#paint7_linear)"/>
    <path d="M21.9418 21.8182L18.575 15.3851C18.469 15.097 18.1967 14.8229 17.7766 14.6915C17.1613 14.499 16.5543 14.7595 16.426 15.1696L15.9126 16.8104L14.2546 16.2917C13.7761 16.1419 13.3016 16.5189 13.109 17.1342C12.9739 17.5662 13.014 17.9442 13.1963 18.1934L16.5586 24.6179C18.7003 24.6338 20.726 23.5799 21.9418 21.8182Z" fill="url(#paint8_linear)"/>
    <path d="M14.6607 20.5358L15.1794 18.8779L13.5214 18.3591C13.0429 18.2094 12.8519 17.6804 13.0551 17.0309C13.2476 16.4156 13.7221 16.0387 14.2006 16.1884L15.8586 16.7072L16.372 15.0663C16.5004 14.6561 17.1073 14.3957 17.7226 14.5882C18.3721 14.7914 18.671 15.3354 18.5427 15.7455L18.0293 17.3863L19.6701 17.8997C20.0803 18.0281 20.3407 18.635 20.1482 19.2503C19.945 19.8998 19.4011 20.1988 18.9909 20.0705L17.3501 19.5571L16.8313 21.215C16.6816 21.6935 16.1526 21.8846 15.5032 21.6814C14.8878 21.4889 14.5109 21.0143 14.6607 20.5358Z" fill="url(#paint9_linear)"/>
    <path d="M27.2141 47.2245L18.0497 29.7135C17.3007 28.1408 15.9252 26.872 14.1316 26.3108C10.7135 25.2413 7.07555 27.1452 6.00605 30.5633C5.44487 32.3569 5.70341 34.2104 6.56875 35.7221L9.72461 41.7522L27.2141 47.2245Z" fill="url(#paint10_linear)"/>
    <path d="M10.2046 38.5857C13.6228 39.6552 17.2607 37.7512 18.3302 34.3331C19.3997 30.915 17.4958 27.277 14.0777 26.2075C10.6595 25.138 7.02157 27.0419 5.95207 30.4601C4.88256 33.8782 6.7865 37.5162 10.2046 38.5857Z" fill="url(#paint11_linear)"/>
    <path d="M10.2046 38.5857C13.6228 39.6552 17.2607 37.7512 18.3302 34.3331C19.3997 30.915 17.4958 27.277 14.0777 26.2075C10.6595 25.138 7.02157 27.0419 5.95207 30.4601C4.88256 33.8782 6.7865 37.5162 10.2046 38.5857Z" fill="url(#paint12_linear)"/>
    <path d="M8.8527 34.1277L11.3124 38.8275C14.0065 39.1777 16.6496 37.7944 17.8974 35.3812L15.4377 30.6814L8.8527 34.1277Z" fill="url(#paint13_linear)"/>
    <path d="M9.06713 32.7218L10.6063 31.9163L9.80076 30.3772C9.56828 29.9329 9.80723 29.4238 10.4102 29.1082C10.9814 28.8093 11.5834 28.8782 11.816 29.3225L12.6215 30.8617L14.1448 30.0645C14.5255 29.8652 15.1389 30.1101 15.4379 30.6814C15.7534 31.2843 15.5802 31.8803 15.1994 32.0796L13.6761 32.8768L14.4733 34.4001C14.6727 34.781 14.4277 35.3943 13.8564 35.6932C13.2535 36.0088 12.6574 35.8356 12.4582 35.4548L11.661 33.9316L10.1218 34.7371C9.6776 34.9696 9.1684 34.7308 8.85288 34.1278C8.55378 33.5564 8.62283 32.9543 9.06713 32.7218Z" fill="url(#paint14_linear)"/>
    <path d="M32.233 29.8174C35.6511 30.8869 39.2891 28.9829 40.3586 25.5648C41.4281 22.1467 39.5242 18.5087 36.106 17.4392C32.6879 16.3697 29.0499 18.2736 27.9804 21.6918C26.9109 25.1099 28.8148 28.7479 32.233 29.8174Z" fill="url(#paint15_linear)"/>
    <path d="M32.233 29.8174C35.6511 30.8869 39.2891 28.9829 40.3586 25.5648C41.4281 22.1467 39.5242 18.5087 36.106 17.4392C32.6879 16.3697 29.0499 18.2736 27.9804 21.6918C26.9109 25.1099 28.8148 28.7479 32.233 29.8174Z" fill="url(#paint16_linear)"/>
    <path d="M39.2476 27.6617L37.2358 23.8177C37.1425 23.58 36.9777 23.4016 36.7765 23.3386L32.3326 21.9481C31.854 21.7984 31.3795 22.1753 31.187 22.7907C31.0534 23.2177 31.0911 23.5918 31.2681 23.8411L34.5452 30.1027C36.3848 29.9958 38.102 29.1033 39.2476 27.6617Z" fill="url(#paint17_linear)"/>
    <path d="M32.2787 21.8449L36.7226 23.2353C37.1328 23.3637 37.3932 23.9706 37.2007 24.5859C36.9975 25.2354 36.4536 25.5344 36.0434 25.4061L31.5995 24.0156C31.1209 23.8659 30.9299 23.3368 31.1331 22.6874C31.3256 22.0721 31.8001 21.6951 32.2787 21.8449Z" fill="url(#paint18_linear)"/>
    <path d="M40.0818 43.743L35.6158 35.2096C34.8668 33.6369 33.4913 32.3681 31.6978 31.8069C28.2796 30.7374 24.6417 32.6413 23.5722 36.0594C23.011 37.853 23.2695 39.7065 24.1348 41.2182L27.2907 47.2483L29.7063 48.0041C33.8072 49.2873 38.1413 47.4082 40.0818 43.743Z" fill="url(#paint19_linear)"/>
    <path d="M27.7698 44.0818C31.1879 45.1513 34.8259 43.2473 35.8954 39.8292C36.9649 36.4111 35.0609 32.7731 31.6428 31.7036C28.2247 30.6341 24.5867 32.538 23.5172 35.9562C22.4477 39.3743 24.3516 43.0123 27.7698 44.0818Z" fill="url(#paint20_linear)"/>
    <path d="M35.5643 40.675C35.1489 41.553 34.5523 42.3043 33.8334 42.8948C33.1228 43.4809 32.293 43.9099 31.4036 44.152L28.2908 38.2042L27.3079 36.3262C27.1306 36.0766 27.0932 35.7025 27.2268 35.2757C27.4193 34.6603 27.8937 34.2832 28.3723 34.433L32.8161 35.8234C33.0173 35.8864 33.1824 36.0648 33.2754 36.3028L35.5643 40.675Z" fill="url(#paint21_linear)"/>
    <path d="M33.8334 42.8948C33.1227 43.481 32.293 43.91 31.4036 44.152C30.5027 44.3974 29.5405 44.4501 28.5783 44.2793L26.2259 39.7845C26.0486 39.5348 26.0112 39.1607 26.1447 38.7339C26.3373 38.1185 26.8116 37.7415 27.2903 37.8912L31.7341 39.2816C31.9353 39.3446 32.1003 39.5231 32.1933 39.761L33.8334 42.8948Z" fill="url(#paint22_linear)"/>
    <path d="M27.7698 44.0818C31.1879 45.1513 34.8259 43.2473 35.8954 39.8292C36.9649 36.4111 35.0609 32.7731 31.6428 31.7036C28.2247 30.6341 24.5867 32.538 23.5172 35.9562C22.4477 39.3743 24.3516 43.0123 27.7698 44.0818Z" fill="url(#paint23_linear)"/>
    <path d="M28.3583 34.3744L32.8022 35.7649C33.2124 35.8932 33.4728 36.5001 33.2803 37.1155C33.0771 37.765 32.5332 38.0639 32.123 37.9355L27.6791 36.545C27.2005 36.3953 27.0095 35.8664 27.2127 35.2169C27.4052 34.6016 27.8797 34.2247 28.3583 34.3744ZM27.2726 37.8441L31.7166 39.2345C32.1268 39.3629 32.3872 39.9699 32.1947 40.5851C31.9914 41.2347 31.4475 41.5336 31.0374 41.4053L26.5934 40.0148C26.1148 39.8651 25.9238 39.3361 26.127 38.6866C26.3195 38.0714 26.7941 37.6943 27.2726 37.8441Z" fill="url(#paint24_linear)"/>
    <defs>
        <linearGradient id="paint0_linear" x1="14.184" y1="4.95906" x2="34.2108" y2="43.2253" gradientUnits="userSpaceOnUse">
            <stop stop-color="#5A5A5A"/>
            <stop offset="1" stop-color="#464646"/>
        </linearGradient>
        <linearGradient id="paint1_linear" x1="39.9204" y1="34.6353" x2="34.226" y2="23.7548" gradientUnits="userSpaceOnUse">
            <stop stop-color="#464646" stop-opacity="0"/>
            <stop offset="0.1772" stop-color="#3D3D3D" stop-opacity="0.177"/>
            <stop offset="0.6736" stop-color="#282828" stop-opacity="0.674"/>
            <stop offset="1" stop-color="#202020"/>
        </linearGradient>
        <linearGradient id="paint2_linear" x1="26.2471" y1="36.577" x2="15.0054" y2="15.097" gradientUnits="userSpaceOnUse">
            <stop stop-color="#464646" stop-opacity="0"/>
            <stop offset="0.1772" stop-color="#3D3D3D" stop-opacity="0.177"/>
            <stop offset="0.6736" stop-color="#282828" stop-opacity="0.674"/>
            <stop offset="1" stop-color="#202020"/>
        </linearGradient>
        <linearGradient id="paint3_linear" x1="20.5503" y1="36.3379" x2="18.0415" y2="44.3562" gradientUnits="userSpaceOnUse">
            <stop stop-color="#464646" stop-opacity="0"/>
            <stop offset="0.1772" stop-color="#3D3D3D" stop-opacity="0.177"/>
            <stop offset="0.6736" stop-color="#282828" stop-opacity="0.674"/>
            <stop offset="1" stop-color="#202020"/>
        </linearGradient>
        <linearGradient id="paint4_linear" x1="13.7413" y1="5.78212" x2="43.6301" y2="15.1341" gradientUnits="userSpaceOnUse">
            <stop stop-color="#F7E07D"/>
            <stop offset="1" stop-color="#E69642"/>
        </linearGradient>
        <linearGradient id="paint5_linear" x1="28.3066" y1="11.6697" x2="29.4899" y2="7.88802" gradientUnits="userSpaceOnUse">
            <stop stop-color="#D52C1C" stop-opacity="0"/>
            <stop offset="0.28" stop-color="#D12C1E" stop-opacity="0.28"/>
            <stop offset="0.5735" stop-color="#C42C23" stop-opacity="0.574"/>
            <stop offset="0.8721" stop-color="#AF2B2C" stop-opacity="0.872"/>
            <stop offset="1" stop-color="#A42B31"/>
        </linearGradient>
        <linearGradient id="paint6_linear" x1="14.0933" y1="13.3342" x2="18.5095" y2="21.7725" gradientUnits="userSpaceOnUse">
            <stop stop-color="#EEF4FF"/>
            <stop offset="1" stop-color="#CFE7FD"/>
        </linearGradient>
        <linearGradient id="paint7_linear" x1="16.2681" y1="19.2068" x2="14.889" y2="23.6145" gradientUnits="userSpaceOnUse">
            <stop stop-color="#8AAADC" stop-opacity="0"/>
            <stop offset="1" stop-color="#8AAADC"/>
        </linearGradient>
        <linearGradient id="paint8_linear" x1="20.0185" y1="24.6871" x2="15.2398" y2="15.5562" gradientUnits="userSpaceOnUse">
            <stop stop-color="#8AAADC" stop-opacity="0"/>
            <stop offset="1" stop-color="#8AAADC"/>
        </linearGradient>
        <linearGradient id="paint9_linear" x1="15.7387" y1="16.5094" x2="18.2742" y2="21.3543" gradientUnits="userSpaceOnUse">
            <stop stop-color="#E38523"/>
            <stop offset="0.7304" stop-color="#DB4735"/>
            <stop offset="1" stop-color="#D82F3C"/>
        </linearGradient>
        <linearGradient id="paint10_linear" x1="18.9706" y1="45.4461" x2="12.9142" y2="33.8739" gradientUnits="userSpaceOnUse">
            <stop stop-color="#464646" stop-opacity="0"/>
            <stop offset="0.1772" stop-color="#3D3D3D" stop-opacity="0.177"/>
            <stop offset="0.6736" stop-color="#282828" stop-opacity="0.674"/>
            <stop offset="1" stop-color="#202020"/>
        </linearGradient>
        <linearGradient id="paint11_linear" x1="9.63009" y1="27.5986" x2="14.0463" y2="36.0369" gradientUnits="userSpaceOnUse">
            <stop stop-color="#EEF4FF"/>
            <stop offset="1" stop-color="#CFE7FD"/>
        </linearGradient>
        <linearGradient id="paint12_linear" x1="12.1613" y1="32.3323" x2="10.8331" y2="36.5772" gradientUnits="userSpaceOnUse">
            <stop stop-color="#8AAADC" stop-opacity="0"/>
            <stop offset="1" stop-color="#8AAADC"/>
        </linearGradient>
        <linearGradient id="paint13_linear" x1="15.1903" y1="38.2229" x2="12.0562" y2="32.2344" gradientUnits="userSpaceOnUse">
            <stop stop-color="#8AAADC" stop-opacity="0"/>
            <stop offset="1" stop-color="#8AAADC"/>
        </linearGradient>
        <linearGradient id="paint14_linear" x1="10.3301" y1="28.936" x2="13.1113" y2="34.2504" gradientUnits="userSpaceOnUse">
            <stop stop-color="#E38523"/>
            <stop offset="0.7304" stop-color="#DB4735"/>
            <stop offset="1" stop-color="#D82F3C"/>
        </linearGradient>
        <linearGradient id="paint15_linear" x1="31.6585" y1="18.8303" x2="36.0748" y2="27.2687" gradientUnits="userSpaceOnUse">
            <stop stop-color="#EEF4FF"/>
            <stop offset="1" stop-color="#CFE7FD"/>
        </linearGradient>
        <linearGradient id="paint16_linear" x1="34.3005" y1="23.2096" x2="32.4309" y2="29.1849" gradientUnits="userSpaceOnUse">
            <stop stop-color="#8AAADC" stop-opacity="0"/>
            <stop offset="1" stop-color="#8AAADC"/>
        </linearGradient>
        <linearGradient id="paint17_linear" x1="35.8353" y1="29.6944" x2="34.7876" y2="23.0458" gradientUnits="userSpaceOnUse">
            <stop stop-color="#8AAADC" stop-opacity="0"/>
            <stop offset="1" stop-color="#8AAADC"/>
        </linearGradient>
        <linearGradient id="paint18_linear" x1="33.042" y1="21.5188" x2="34.853" y2="24.9791" gradientUnits="userSpaceOnUse">
            <stop stop-color="#E38523"/>
            <stop offset="0.7304" stop-color="#DB4735"/>
            <stop offset="1" stop-color="#D82F3C"/>
        </linearGradient>
        <linearGradient id="paint19_linear" x1="36.4332" y1="50.7443" x2="29.487" y2="37.472" gradientUnits="userSpaceOnUse">
            <stop stop-color="#464646" stop-opacity="0"/>
            <stop offset="0.1772" stop-color="#3D3D3D" stop-opacity="0.177"/>
            <stop offset="0.6736" stop-color="#282828" stop-opacity="0.674"/>
            <stop offset="1" stop-color="#202020"/>
        </linearGradient>
        <linearGradient id="paint20_linear" x1="27.1953" y1="33.0947" x2="31.6115" y2="41.5331" gradientUnits="userSpaceOnUse">
            <stop stop-color="#E38523"/>
            <stop offset="0.7304" stop-color="#DB4735"/>
            <stop offset="1" stop-color="#D82F3C"/>
        </linearGradient>
        <linearGradient id="paint21_linear" x1="32.3213" y1="44.3966" x2="31.0713" y2="36.4645" gradientUnits="userSpaceOnUse">
            <stop stop-color="#D52C1C" stop-opacity="0"/>
            <stop offset="0.28" stop-color="#D12C1E" stop-opacity="0.28"/>
            <stop offset="0.5735" stop-color="#C42C23" stop-opacity="0.574"/>
            <stop offset="0.8721" stop-color="#AF2B2C" stop-opacity="0.872"/>
            <stop offset="1" stop-color="#A42B31"/>
        </linearGradient>
        <linearGradient id="paint22_linear" x1="30.6209" y1="45.3708" x2="29.7662" y2="39.9473" gradientUnits="userSpaceOnUse">
            <stop stop-color="#D52C1C" stop-opacity="0"/>
            <stop offset="0.28" stop-color="#D12C1E" stop-opacity="0.28"/>
            <stop offset="0.5735" stop-color="#C42C23" stop-opacity="0.574"/>
            <stop offset="0.8721" stop-color="#AF2B2C" stop-opacity="0.872"/>
            <stop offset="1" stop-color="#A42B31"/>
        </linearGradient>
        <linearGradient id="paint23_linear" x1="29.4928" y1="38.5751" x2="27.9803" y2="43.4088" gradientUnits="userSpaceOnUse">
            <stop stop-color="#D52C1C" stop-opacity="0"/>
            <stop offset="0.2717" stop-color="#CD2C1F" stop-opacity="0.272"/>
            <stop offset="0.6806" stop-color="#B92B28" stop-opacity="0.681"/>
            <stop offset="1" stop-color="#A42B31"/>
        </linearGradient>
        <linearGradient id="paint24_linear" x1="28.0254" y1="34.726" x2="30.8618" y2="40.1456" gradientUnits="userSpaceOnUse">
            <stop stop-color="#EEF4FF"/>
            <stop offset="1" stop-color="#CFE7FD"/>
        </linearGradient>
    </defs>
</svg>
