<svg width="82" height="82" viewBox="0 0 82 82" fill="none" xmlns="http://www.w3.org/2000/svg">
    <path d="M35.1425 37.4525L44.8901 40.6322L42.4663 44.8544L35.1425 37.4525Z" fill="url(#paint0_linear)"/>
    <path d="M24.6627 59.3823L51.3937 32.6489L69.6457 50.9009L60.1039 60.4427L47.587 72.9597L46.5466 74.0001C43.8382 76.7085 39.5687 77.0623 36.4516 74.8362L25.2824 66.8606C22.8094 65.0949 22.5139 61.5311 24.6627 59.3823Z" fill="url(#paint1_linear)"/>
    <path d="M57.3372 59.3823L30.6063 32.6489L12.3542 50.9009L21.896 60.4427L34.413 72.9597L35.4534 74.0001C38.1618 76.7085 42.4312 77.0623 45.5483 74.8362L56.7176 66.8606C59.1906 65.0949 59.4859 61.5311 57.3372 59.3823Z" fill="url(#paint2_linear)"/>
    <path d="M32.3731 70.9199L22.8315 61.3782L41.0829 43.1268L30.6063 32.6489L12.3542 50.9009L21.8959 60.4425L34.4128 72.9595L34.831 73.3777L32.3731 70.9199Z" fill="url(#paint3_linear)"/>
    <path d="M21.8959 60.4425L34.4129 72.9595L35.4533 73.9999C38.1617 76.7083 42.4311 77.0621 45.5482 74.8361L47.2377 73.6298L29.7331 56.125C28.1023 54.4942 25.4584 54.4943 23.8277 56.1252L20.7032 59.2498L21.8959 60.4425Z" fill="url(#paint4_linear)"/>
    <path d="M29.7331 56.125C28.1023 54.4942 25.4584 54.4943 23.8277 56.1252L20.5709 59.3823C18.4223 61.531 18.7174 65.0947 21.1904 66.8606L32.3597 74.8362C35.4768 77.0621 39.7462 76.7084 42.4546 74L43.495 72.9597C44.3435 72.1112 44.3435 70.7358 43.495 69.8872L29.7331 56.125Z" fill="url(#paint5_linear)"/>
    <path d="M40.9994 43.0432L35.1349 48.9078C33.9386 50.104 34.1129 52.0219 35.3523 53.0166L52.3297 69.9939L56.7175 66.8608C59.1904 65.0949 59.4857 61.5311 57.3369 59.3825L40.9994 43.0432Z" fill="url(#paint6_linear)"/>
    <path d="M48.4347 50.5359L48.4938 50.5497C53.221 51.6591 58.1858 50.2454 61.6194 46.8118L63.5489 44.8041L51.3937 32.6489L35.1349 48.9078C33.7638 50.2789 34.1928 52.5989 35.9637 53.389C38.0246 54.3082 40.3832 54.2889 42.4287 53.3355L48.4347 50.5359Z" fill="url(#paint7_linear)"/>
    <path d="M14.0367 57.1547L11.5613 54.6793C10.9638 54.0818 10.9638 53.1132 11.5613 52.5158L32.6583 31.4187C33.2559 30.8212 34.2243 30.8212 34.8219 31.4187L37.2973 33.8941C37.8948 34.4917 37.8948 35.4603 37.2973 36.0577L16.2001 57.1547C15.6029 57.7521 14.6341 57.7521 14.0367 57.1547Z" fill="url(#paint8_linear)"/>
    <path d="M35.6427 32.2397L34.8218 31.4187C34.2242 30.8212 33.2558 30.8212 32.6582 31.4187L11.5612 52.5158C10.9637 53.1133 10.9637 54.0818 11.5612 54.6793L14.0366 57.1547C14.6341 57.7522 15.6027 57.7522 16.2001 57.1547L35.6427 37.7124V32.2397Z" fill="url(#paint9_linear)"/>
    <path d="M9.77609 55.8344L0.467346 46.5256C-0.15566 45.9026 -0.15566 44.8924 0.467346 44.2695L24.4119 20.3249C25.0349 19.7019 26.0452 19.7019 26.6681 20.3249L35.9768 29.6337C36.5998 30.2567 36.5998 31.2669 35.9768 31.8898L12.0322 55.8344C11.4092 56.4574 10.3991 56.4574 9.77609 55.8344Z" fill="url(#paint10_linear)"/>
    <path d="M67.9633 57.1547L70.4387 54.6793C71.0362 54.0818 71.0362 53.1132 70.4387 52.5158L49.3418 31.4187C48.7443 30.8212 47.7756 30.8212 47.1783 31.4187L44.7029 33.8941C44.1053 34.4917 44.1053 35.4603 44.7029 36.0577L65.7999 57.1547C66.3971 57.7521 67.3657 57.7521 67.9633 57.1547Z" fill="url(#paint11_linear)"/>
    <path d="M46.3573 32.2397L47.1783 31.4187C47.7758 30.8212 48.7443 30.8212 49.3418 31.4187L70.4388 52.5158C71.0364 53.1133 71.0364 54.0818 70.4388 54.6793L67.9635 57.1547C67.3659 57.7522 66.3973 57.7522 65.7999 57.1547L46.3573 37.7124V32.2397Z" fill="url(#paint12_linear)"/>
    <path d="M72.2239 55.8344L81.5326 46.5256C82.1557 45.9026 82.1557 44.8924 81.5326 44.2695L57.5881 20.3249C56.9651 19.7019 55.9548 19.7019 55.3319 20.3249L46.0232 29.6337C45.4002 30.2567 45.4002 31.2669 46.0232 31.8898L69.9678 55.8344C70.5908 56.4574 71.6009 56.4574 72.2239 55.8344Z" fill="url(#paint13_linear)"/>
    <path d="M58.8424 6.37902C59.7409 7.2775 59.7409 8.73412 58.8422 9.63243L45.8105 22.6627C43.4083 25.0649 39.4997 25.0649 37.0993 22.6627L32.1609 17.7243C31.2626 16.826 31.2624 15.3699 32.1606 14.4714C33.0589 13.5726 34.5158 13.5724 35.4143 14.4711L40.3519 19.4087C40.9597 20.0165 41.9501 20.0165 42.5563 19.4087L55.5884 6.37806C56.4868 5.47975 57.9433 5.47975 58.8416 6.37822L58.8424 6.37902Z" fill="url(#paint14_linear)"/>
    <defs>
        <linearGradient id="paint0_linear" x1="39.0844" y1="38.15" x2="44.6844" y2="43.7516" gradientUnits="userSpaceOnUse">
            <stop stop-color="#C1905B"/>
            <stop offset="1" stop-color="#AF773F"/>
        </linearGradient>
        <linearGradient id="paint1_linear" x1="49.6005" y1="65.6824" x2="46.1598" y2="56.6127" gradientUnits="userSpaceOnUse">
            <stop stop-color="#FFE7A5"/>
            <stop offset="1" stop-color="#FFBF5C"/>
        </linearGradient>
        <linearGradient id="paint2_linear" x1="33.632" y1="51.1284" x2="43.6405" y2="78.6508" gradientUnits="userSpaceOnUse">
            <stop stop-color="#C1905B"/>
            <stop offset="1" stop-color="#AF773F"/>
        </linearGradient>
        <linearGradient id="paint3_linear" x1="31.3613" y1="51.6596" x2="26.8192" y2="47.1159" gradientUnits="userSpaceOnUse">
            <stop stop-color="#AF773F" stop-opacity="0"/>
            <stop offset="1" stop-color="#9E6429"/>
        </linearGradient>
        <linearGradient id="paint4_linear" x1="49.8126" y1="77.5614" x2="40.743" y2="70.9935" gradientUnits="userSpaceOnUse">
            <stop stop-color="#AF773F" stop-opacity="0"/>
            <stop offset="1" stop-color="#9E6429"/>
        </linearGradient>
        <linearGradient id="paint5_linear" x1="33.2128" y1="65.0041" x2="19.1397" y2="77.4099" gradientUnits="userSpaceOnUse">
            <stop stop-color="#FFE7A5"/>
            <stop offset="1" stop-color="#FFBF5C"/>
        </linearGradient>
        <linearGradient id="paint6_linear" x1="50.9496" y1="63.2835" x2="41.2545" y2="48.4274" gradientUnits="userSpaceOnUse">
            <stop stop-color="#AF773F" stop-opacity="0"/>
            <stop offset="1" stop-color="#9E6429"/>
        </linearGradient>
        <linearGradient id="paint7_linear" x1="49.2361" y1="44.083" x2="48.1412" y2="57.5323" gradientUnits="userSpaceOnUse">
            <stop stop-color="#FFE7A5"/>
            <stop offset="1" stop-color="#FFBF5C"/>
        </linearGradient>
        <linearGradient id="paint8_linear" x1="27.5604" y1="37.981" x2="12.4438" y2="68.4216" gradientUnits="userSpaceOnUse">
            <stop stop-color="#E2EDF2"/>
            <stop offset="1" stop-color="#9FC7E2"/>
        </linearGradient>
        <linearGradient id="paint9_linear" x1="23.8408" y1="44.3819" x2="19.6605" y2="32.3604" gradientUnits="userSpaceOnUse">
            <stop stop-color="#E2EDF2" stop-opacity="0"/>
            <stop offset="1" stop-color="#4975AD"/>
        </linearGradient>
        <linearGradient id="paint10_linear" x1="20.0544" y1="34.1018" x2="4.20782" y2="68.504" gradientUnits="userSpaceOnUse">
            <stop stop-color="#4975AD"/>
            <stop offset="1" stop-color="#114F77"/>
        </linearGradient>
        <linearGradient id="paint11_linear" x1="54.4377" y1="37.981" x2="69.5544" y2="68.4216" gradientUnits="userSpaceOnUse">
            <stop stop-color="#F4CA3E"/>
            <stop offset="1" stop-color="#DB9E36"/>
        </linearGradient>
        <linearGradient id="paint12_linear" x1="58.157" y1="44.3824" x2="62.3389" y2="32.3608" gradientUnits="userSpaceOnUse">
            <stop stop-color="#DB9E36" stop-opacity="0"/>
            <stop offset="1" stop-color="#9E6429"/>
        </linearGradient>
        <linearGradient id="paint13_linear" x1="61.9438" y1="34.1018" x2="77.7903" y2="68.504" gradientUnits="userSpaceOnUse">
            <stop stop-color="#FF5D00"/>
            <stop offset="1" stop-color="#D54003"/>
        </linearGradient>
        <linearGradient id="paint14_linear" x1="42.0162" y1="8.56875" x2="65.5818" y2="32.1344" gradientUnits="userSpaceOnUse">
            <stop stop-color="#9EB644"/>
            <stop offset="1" stop-color="#738611"/>
        </linearGradient>
    </defs>
</svg>
