<svg width="87" height="87" viewBox="0 0 87 87" fill="none" xmlns="http://www.w3.org/2000/svg">
    <path d="M23.2001 52.9095H2.72946V79.1801H23.2001V52.9095Z" fill="url(#paint0_linear)"/>
    <path d="M24.0529 58.5385H2.77532C1.90345 58.5385 1.27933 57.6967 1.53234 56.8622L3.64379 49.907C3.80998 49.3595 4.31465 48.9855 4.88677 48.9855H24.0531V58.5385H24.0529Z" fill="url(#paint1_linear)"/>
    <path d="M84.2707 52.9095H63.8V79.1801H84.2707V52.9095Z" fill="url(#paint2_linear)"/>
    <path d="M84.2705 72.2972L70.5169 58.5433H63.8V79.1795H84.2705V72.2972Z" fill="url(#paint3_linear)"/>
    <path d="M62.9471 58.5385H84.2247C85.0965 58.5385 85.7206 57.6967 85.4676 56.8622L83.3562 49.907C83.19 49.3595 82.6853 48.9855 82.1132 48.9855H62.9471V58.5385Z" fill="url(#paint4_linear)"/>
    <path d="M70.5288 37.5699V79.1795H16.4787V37.5699L43.5038 10.3812L70.5288 37.5699Z" fill="url(#paint5_linear)"/>
    <path d="M70.5279 37.5697V79.1795H53.464L16.4789 42.1943V37.5697L43.5034 10.3813L70.5279 37.5697Z" fill="url(#paint6_linear)"/>
    <path d="M26.702 27.2845C27.2859 31.2668 29.251 34.8002 32.0965 37.3811L70.5288 75.8136V37.5699L43.5037 10.3812L26.702 27.2845Z" fill="url(#paint7_linear)"/>
    <path d="M62.1766 79.1795H35.7429L21.2122 64.6488C20.5724 64.234 20.1468 63.5144 20.1468 62.6981V51.0032C20.1468 49.722 21.1899 48.6788 22.4712 48.6788H30.9025C31.7207 48.6788 32.4403 49.1047 32.8551 49.7442L32.7919 49.7944L62.1766 79.1795Z" fill="url(#paint8_linear)"/>
    <path d="M30.9025 63.6599H22.4718C21.9401 63.6599 21.5092 63.229 21.5092 62.6973V51.0041C21.5092 50.4724 21.9403 50.0415 22.4718 50.0415H30.9025C31.4342 50.0415 31.8651 50.4724 31.8651 51.0041V62.6973C31.8653 63.2291 31.4342 63.6599 30.9025 63.6599Z" fill="#503837"/>
    <path d="M30.9025 65.0227H22.4718C21.1898 65.0227 20.1466 63.9795 20.1466 62.6975V51.0043C20.1466 49.7222 21.1898 48.6791 22.4718 48.6791H30.9025C32.1846 48.6791 33.2277 49.7222 33.2277 51.0043V62.6975C33.2279 63.9795 32.1847 65.0227 30.9025 65.0227ZM22.872 62.2973H30.5025V51.4041H22.872V62.2973Z" fill="white"/>
    <path d="M70.5298 53.5026V79.1795H69.7004L55.1697 64.6488C54.5281 64.234 54.1023 63.5144 54.1023 62.6981V51.0032C54.1023 49.722 55.1454 48.6788 56.4285 48.6788H64.858C65.6762 48.6788 66.3958 49.1047 66.8106 49.7442L66.844 49.7704L66.8216 49.7947L70.5298 53.5026Z" fill="url(#paint9_linear)"/>
    <path d="M64.8587 63.6599H56.428C55.8963 63.6599 55.4654 63.229 55.4654 62.6973V51.0041C55.4654 50.4724 55.8963 50.0415 56.428 50.0415H64.8587C65.3904 50.0415 65.8213 50.4724 65.8213 51.0041V62.6973C65.8215 63.2291 65.3904 63.6599 64.8587 63.6599Z" fill="#503837"/>
    <path d="M64.8589 65.0227H56.4282C55.1461 65.0227 54.103 63.9795 54.103 62.6975V51.0043C54.103 49.7222 55.1461 48.6791 56.4282 48.6791H64.8589C66.1409 48.6791 67.1841 49.7222 67.1841 51.0043V62.6975C67.1841 63.9795 66.1409 65.0227 64.8589 65.0227ZM56.828 62.2973H64.4585V51.4041H56.828V62.2973Z" fill="white"/>
    <path d="M76.6404 41.3287L45.1302 9.80818C44.232 8.90997 42.776 8.90997 41.8777 9.80818L10.3598 41.3261C9.7722 41.9137 9.7722 42.8663 10.3598 43.4539L11.703 44.7971C12.2906 45.3845 13.2432 45.3845 13.8308 44.7971L43.0757 15.5524C43.3121 15.316 43.6954 15.316 43.9321 15.5524L73.1694 44.7997C73.757 45.3873 74.7095 45.3873 75.2971 44.7997L76.6404 43.4564C77.2278 42.8689 77.2278 41.9163 76.6404 41.3287Z" fill="url(#paint10_linear)"/>
    <path d="M45.1301 9.80821C44.681 9.35911 44.0923 9.13464 43.5039 9.13464V15.375C43.6589 15.375 43.8138 15.4342 43.9321 15.5524L73.1694 44.7999C73.757 45.3873 74.7095 45.3873 75.2971 44.7999L76.6404 43.4567C77.228 42.8691 77.228 41.9165 76.6404 41.3289L45.1301 9.80821Z" fill="url(#paint11_linear)"/>
    <path d="M37.8717 79.1788V49.6516C37.8717 48.3492 38.9274 47.2935 40.2299 47.2935H46.778C48.0804 47.2935 49.1361 48.3492 49.1361 49.6516V79.1788H37.8717Z" fill="#816965"/>
    <path d="M50.5307 79.1788H47.7412V50.4557C47.7412 49.4838 46.946 48.6884 45.9739 48.6884H41.0336C40.0576 48.6884 39.2662 49.4795 39.2662 50.4557V79.1788H36.477V48.611C36.477 47.1132 37.6912 45.8989 39.1891 45.8989H47.8184C49.3163 45.8989 50.5305 47.1132 50.5305 48.611V79.1788H50.5307Z" fill="#503837"/>
    <path d="M41.5058 59.6487C42.2081 59.6487 42.7775 59.0794 42.7775 58.377C42.7775 57.6747 42.2081 57.1053 41.5058 57.1053C40.8035 57.1053 40.2341 57.6747 40.2341 58.377C40.2341 59.0794 40.8035 59.6487 41.5058 59.6487Z" fill="white"/>
    <path d="M70.5298 71.7374H16.4772V79.1786H70.5298V71.7374Z" fill="#654E48"/>
    <path d="M15.8853 76.2711C15.8853 77.2981 15.6911 78.2781 15.3363 79.1788H0.549018C0.194221 78.2782 0 77.2981 0 76.2711C0 75.2711 0.184365 74.3152 0.522 73.4345C1.66371 70.4474 4.55578 68.3285 7.94283 68.3285C11.3299 68.3285 14.2218 70.4476 15.3637 73.4345C15.7011 74.3153 15.8853 75.2713 15.8853 76.2711Z" fill="url(#paint12_linear)"/>
    <path d="M21.0071 77.0698C21.0071 77.8147 20.8662 78.5255 20.609 79.179H9.88198C9.62472 78.5257 9.48386 77.8147 9.48386 77.0698C9.48386 76.3444 9.61758 75.651 9.86261 75.0121C10.6908 72.8452 12.7887 71.3081 15.2457 71.3081C17.7028 71.3081 19.8007 72.8452 20.6289 75.0121C20.8734 75.6508 21.0071 76.3444 21.0071 77.0698Z" fill="url(#paint13_linear)"/>
    <path d="M87 75.7895C87 76.9866 86.7735 78.1289 86.3601 79.1789H69.1225C68.7093 78.1291 68.4826 76.9866 68.4826 75.7895C68.4826 74.6238 68.6976 73.5096 69.0911 72.4828C70.4221 69.0009 73.7932 66.5308 77.7413 66.5308C81.6894 66.5308 85.0605 69.0009 86.3915 72.4828C86.7851 73.5096 87 74.624 87 75.7895Z" fill="url(#paint14_linear)"/>
    <path d="M43.5 41.7804C52.878 41.7804 60.4803 34.1781 60.4803 24.8001C60.4803 15.4222 52.878 7.81982 43.5 7.81982C34.122 7.81982 26.5197 15.4222 26.5197 24.8001C26.5197 34.1781 34.122 41.7804 43.5 41.7804Z" fill="url(#paint15_linear)"/>
    <path d="M60.4798 24.8002C60.4798 24.7707 60.4789 24.7414 60.4788 24.7119L54.1813 18.4144C53.1485 17.2819 51.7198 16.5313 50.0481 16.4497C47.2397 16.313 44.8157 18.0355 43.8958 20.4927L41.8817 18.4893C40.6762 17.1614 38.9075 16.3544 36.9521 16.4497C33.0646 16.639 30.4843 20.4416 31.1671 24.2733C31.6485 26.9752 33.3236 29.3227 35.2894 31.2321L45.6964 41.6391C54.0364 40.5618 60.4798 33.4338 60.4798 24.8002Z" fill="url(#paint16_linear)"/>
    <path d="M50.0483 16.4498C46.5086 16.2773 43.5766 19.0575 43.5017 22.5413C43.5015 22.5489 43.499 22.5489 43.4988 22.5413C43.4237 19.0575 40.4917 16.2773 36.9522 16.4498C33.0648 16.639 30.4845 20.4416 31.1672 24.2733C32.3152 30.7177 40.2468 35.1549 42.7472 36.4064C43.2218 36.6438 43.7792 36.6438 44.2538 36.4064C46.7542 35.1551 54.6856 30.7179 55.8338 24.2733C56.5158 20.4414 53.9357 16.6392 50.0483 16.4498Z" fill="url(#paint17_linear)"/>
    <defs>
        <linearGradient id="paint0_linear" x1="12.9644" y1="56.2385" x2="12.9644" y2="79.5676" gradientUnits="userSpaceOnUse">
            <stop stop-color="#FFE7A5"/>
            <stop offset="0.966" stop-color="#FFBF5C"/>
        </linearGradient>
        <linearGradient id="paint1_linear" x1="12.764" y1="50.1964" x2="12.764" y2="58.6796" gradientUnits="userSpaceOnUse">
            <stop stop-color="#FF5D00"/>
            <stop offset="1" stop-color="#D54003"/>
        </linearGradient>
        <linearGradient id="paint2_linear" x1="74.0337" y1="56.2385" x2="74.0337" y2="79.5676" gradientUnits="userSpaceOnUse">
            <stop stop-color="#FFE7A5"/>
            <stop offset="0.966" stop-color="#FFBF5C"/>
        </linearGradient>
        <linearGradient id="paint3_linear" x1="73.5561" y1="74.5644" x2="52.3371" y2="55.6551" gradientUnits="userSpaceOnUse">
            <stop stop-color="#FF5D00" stop-opacity="0"/>
            <stop offset="1" stop-color="#D54003"/>
        </linearGradient>
        <linearGradient id="paint4_linear" x1="74.2342" y1="50.1964" x2="74.2342" y2="58.6796" gradientUnits="userSpaceOnUse">
            <stop stop-color="#FF5D00"/>
            <stop offset="1" stop-color="#D54003"/>
        </linearGradient>
        <linearGradient id="paint5_linear" x1="43.5028" y1="45.258" x2="43.5028" y2="93.9599" gradientUnits="userSpaceOnUse">
            <stop stop-color="#FFE7A5"/>
            <stop offset="0.966" stop-color="#FFBF5C"/>
            <stop offset="1" stop-color="#DB9E36"/>
        </linearGradient>
        <linearGradient id="paint6_linear" x1="42.2622" y1="38.5609" x2="18.6124" y2="14.911" gradientUnits="userSpaceOnUse">
            <stop stop-color="#FF5D00" stop-opacity="0"/>
            <stop offset="1" stop-color="#D54003"/>
        </linearGradient>
        <linearGradient id="paint7_linear" x1="61.8267" y1="47.9242" x2="32.8836" y2="18.9811" gradientUnits="userSpaceOnUse">
            <stop stop-color="#FF5D00" stop-opacity="0"/>
            <stop offset="1" stop-color="#D54003"/>
        </linearGradient>
        <linearGradient id="paint8_linear" x1="37.2162" y1="67.3812" x2="12.8329" y2="42.9962" gradientUnits="userSpaceOnUse">
            <stop stop-color="#FF5D00" stop-opacity="0"/>
            <stop offset="1" stop-color="#D54003"/>
        </linearGradient>
        <linearGradient id="paint9_linear" x1="67.1664" y1="63.3752" x2="51.5545" y2="47.7633" gradientUnits="userSpaceOnUse">
            <stop stop-color="#FF5D00" stop-opacity="0"/>
            <stop offset="1" stop-color="#D54003"/>
        </linearGradient>
        <linearGradient id="paint10_linear" x1="43.4992" y1="30.4546" x2="43.4992" y2="57.8232" gradientUnits="userSpaceOnUse">
            <stop stop-color="#FF5D00"/>
            <stop offset="1" stop-color="#D54003"/>
        </linearGradient>
        <linearGradient id="paint11_linear" x1="70.0505" y1="37.2866" x2="54.8753" y2="23.3924" gradientUnits="userSpaceOnUse">
            <stop stop-color="#D54003" stop-opacity="0"/>
            <stop offset="1" stop-color="#A40002"/>
        </linearGradient>
        <linearGradient id="paint12_linear" x1="3.4634" y1="71.3269" x2="13.2645" y2="81.127" gradientUnits="userSpaceOnUse">
            <stop stop-color="#9EB644"/>
            <stop offset="1" stop-color="#738611"/>
        </linearGradient>
        <linearGradient id="paint13_linear" x1="11.9958" y1="73.4826" x2="19.1058" y2="80.5926" gradientUnits="userSpaceOnUse">
            <stop stop-color="#9EB644"/>
            <stop offset="1" stop-color="#738611"/>
        </linearGradient>
        <linearGradient id="paint14_linear" x1="72.5185" y1="70.0257" x2="83.9425" y2="81.4497" gradientUnits="userSpaceOnUse">
            <stop stop-color="#9EB644"/>
            <stop offset="1" stop-color="#738611"/>
        </linearGradient>
        <linearGradient id="paint15_linear" x1="35.7957" y1="17.0976" x2="61.7621" y2="43.0657" gradientUnits="userSpaceOnUse">
            <stop stop-color="#FF7BAC"/>
            <stop offset="1" stop-color="#E24786"/>
        </linearGradient>
        <linearGradient id="paint16_linear" x1="65.5031" y1="45.5902" x2="48.211" y2="28.2981" gradientUnits="userSpaceOnUse">
            <stop stop-color="#FF7BAC" stop-opacity="0"/>
            <stop offset="1" stop-color="#E24786"/>
        </linearGradient>
        <linearGradient id="paint17_linear" x1="39.8311" y1="19.918" x2="56.6337" y2="36.7223" gradientUnits="userSpaceOnUse">
            <stop stop-color="white"/>
            <stop offset="1" stop-color="#E2EDF2"/>
        </linearGradient>
    </defs>
</svg>
