<svg width="30" height="30" viewBox="0 0 30 30" fill="none" xmlns="http://www.w3.org/2000/svg">
    <g clip-path="url(#clip0)">
        <path d="M15 29.9998C21.2021 29.9998 26.2299 28.9187 26.2299 27.585C26.2299 26.2513 21.2021 25.1702 15 25.1702C8.79793 25.1702 3.77014 26.2513 3.77014 27.585C3.77014 28.9187 8.79793 29.9998 15 29.9998Z" fill="url(#paint0_linear)"/>
        <path d="M26.2299 27.585C26.2299 26.2513 21.2021 25.1702 15 25.1702C13.9682 25.1702 12.9693 25.2002 12.0203 25.2563L14.1223 28.3488C14.181 28.435 14.2494 28.5089 14.3246 28.5712L15.7477 29.9943C21.6011 29.9116 26.2299 28.8646 26.2299 27.585Z" fill="url(#paint1_linear)"/>
        <path d="M27.3083 12.3084C27.3083 5.51065 21.7978 0 15 0C8.23193 0 2.7601 5.41429 2.69222 12.1821C2.64099 17.2936 5.7061 21.6946 10.1038 23.6034C10.8396 23.9228 11.4691 24.4457 11.9201 25.1091L14.1223 28.3489C14.5435 28.9684 15.4565 28.9684 15.8776 28.3489L18.0798 25.1092C18.5293 24.4478 19.1555 23.9244 19.8893 23.6064C24.2544 21.7149 27.3083 17.3686 27.3083 12.3084Z" fill="url(#paint2_linear)"/>
        <path d="M15 28.2004C14.9287 28.2004 14.7499 28.1813 14.6296 28.0044L12.4274 24.7645C11.9095 24.0026 11.1905 23.4066 10.348 23.041C6.02259 21.1635 3.2583 16.9036 3.30559 12.1884C3.33677 9.07806 4.56535 6.16623 6.765 3.98923C8.96441 1.81247 11.8893 0.613525 15 0.613525H15.0001C21.4487 0.613525 26.695 5.85994 26.695 12.3086C26.695 16.9743 23.9279 21.1881 19.6455 23.0438C18.8079 23.4068 18.0911 24.0018 17.5726 24.7646L15.3704 28.0044C15.2501 28.1813 15.0713 28.2004 15 28.2004Z" fill="url(#paint3_linear)"/>
        <path d="M15 20.0454C19.273 20.0454 22.7369 16.5815 22.7369 12.3085C22.7369 8.03548 19.273 4.57153 15 4.57153C10.727 4.57153 7.26306 8.03548 7.26306 12.3085C7.26306 16.5815 10.727 20.0454 15 20.0454Z" fill="url(#paint4_linear)"/>
        <path d="M26.9233 15.3728L19.5726 8.02206C18.429 6.80265 16.8036 6.04053 15 6.04053C11.5384 6.04053 8.73221 8.8467 8.73221 12.3083C8.73221 14.1119 9.49433 15.7374 10.7137 16.8809L18.4606 24.6277C18.8586 24.1924 19.3442 23.8425 19.8894 23.6064C23.3417 22.1103 25.9734 19.0786 26.9233 15.3728Z" fill="url(#paint5_linear)"/>
        <path d="M15 18.5761C18.4616 18.5761 21.2678 15.7699 21.2678 12.3083C21.2678 8.8467 18.4616 6.04053 15 6.04053C11.5384 6.04053 8.73221 8.8467 8.73221 12.3083C8.73221 15.7699 11.5384 18.5761 15 18.5761Z" fill="url(#paint6_linear)"/>
    </g>
    <defs>
        <linearGradient id="paint0_linear" x1="14.7527" y1="26.5429" x2="16.1477" y2="32.4219" gradientUnits="userSpaceOnUse">
            <stop stop-color="#FFDA45"/>
            <stop offset="1" stop-color="#FFA425"/>
        </linearGradient>
        <linearGradient id="paint1_linear" x1="20.8311" y1="28.7025" x2="17.117" y2="23.9636" gradientUnits="userSpaceOnUse">
            <stop stop-color="#FFDA45" stop-opacity="0"/>
            <stop offset="1" stop-color="#B53759"/>
        </linearGradient>
        <linearGradient id="paint2_linear" x1="7.57134" y1="4.87929" x2="32.1301" y2="29.4381" gradientUnits="userSpaceOnUse">
            <stop stop-color="#FF7044"/>
            <stop offset="1" stop-color="#F92814"/>
        </linearGradient>
        <linearGradient id="paint3_linear" x1="12.3605" y1="9.67588" x2="3.73023" y2="1.04565" gradientUnits="userSpaceOnUse">
            <stop stop-color="#FF7044" stop-opacity="0"/>
            <stop offset="1" stop-color="#FFA425"/>
        </linearGradient>
        <linearGradient id="paint4_linear" x1="19.6653" y1="16.9738" x2="4.23424" y2="1.54271" gradientUnits="userSpaceOnUse">
            <stop stop-color="#FF7044"/>
            <stop offset="1" stop-color="#F92814"/>
        </linearGradient>
        <linearGradient id="paint5_linear" x1="23.0492" y1="20.3575" x2="16.2099" y2="13.5182" gradientUnits="userSpaceOnUse">
            <stop stop-color="#F92814" stop-opacity="0"/>
            <stop offset="1" stop-color="#C1272D"/>
        </linearGradient>
        <linearGradient id="paint6_linear" x1="13.4656" y1="9.96841" x2="17.1694" y2="15.6167" gradientUnits="userSpaceOnUse">
            <stop stop-color="#F9F7FC"/>
            <stop offset="1" stop-color="#F0DDFC"/>
        </linearGradient>
        <clipPath id="clip0">
            <rect width="30" height="30" fill="white"/>
        </clipPath>
    </defs>
</svg>
