<svg width="46" height="47" viewBox="0 0 46 47" fill="none" xmlns="http://www.w3.org/2000/svg">
    <g filter="url(#filter0_f)">
        <ellipse cx="12.6162" cy="40.4702" rx="8.5" ry="1.49844" transform="rotate(-6.63289 12.6162 40.4702)" fill="#A6A6A6"/>
    </g>
    <path d="M14.2895 36.4777L14.2389 36.0017C14.1384 35.0576 14.4995 34.0796 15.2115 33.3676L16.3737 32.2054L15.0842 30.9159L13.7946 29.6262L12.6324 30.7884C11.9204 31.5004 10.9425 31.8616 9.99836 31.7611L9.52234 31.7104C8.99804 31.6545 8.46453 31.9417 8.19312 32.4258L6.85906 34.8046C6.71828 35.0558 6.71688 35.3508 6.85547 35.5771C7.40398 36.4727 7.33242 37.6607 6.67344 38.5967L6.06485 39.461C5.96032 39.6094 5.99266 39.773 6.08813 39.8806L9.69664 36.1169C9.90351 35.9011 10.0108 35.5971 9.94539 35.3053C9.8639 34.9415 9.98968 34.541 10.3238 34.2921C10.6756 34.03 11.1768 34.0385 11.5208 34.3106C11.9944 34.6852 12.0241 35.3751 11.6099 35.7893C11.3642 36.035 11.0216 36.1239 10.7053 36.0568C10.4091 35.9939 10.1019 36.0933 9.88328 36.3028L6.11922 39.9117C6.22696 40.0072 6.39055 40.0396 6.53891 39.935L7.4032 39.3264C8.33914 38.6674 9.52711 38.5957 10.4227 39.1444C10.649 39.283 10.9441 39.2817 11.1952 39.1408L13.5741 37.8067C14.0582 37.5355 14.3454 37.0021 14.2895 36.4777Z" fill="url(#paint0_linear)"/>
    <path d="M14.2895 36.4776L14.2389 36.0016C14.1384 35.0575 14.4995 34.0796 15.2116 33.3675L16.3737 32.2054L15.0842 30.9158L13.7946 29.6262L12.6324 30.7884C12.5944 30.8265 12.5552 30.8629 12.5158 30.899V38.4004L13.5741 37.8069C14.0582 37.5353 14.3453 37.002 14.2895 36.4776Z" fill="url(#paint1_linear)"/>
    <path d="M45.6456 1.53253C46.5541 0.446201 45.5538 -0.554109 44.4674 0.354326L29.095 13.8037C23.4462 18.4105 24.2003 17.559 19.4833 23.1222C17.9946 24.8781 16.4669 26.6058 14.8871 28.2897C14.6948 28.4947 14.4869 28.6848 14.2662 28.859L12.9018 29.9374C12.417 30.3205 12.375 31.0408 12.8119 31.4778L13.6671 32.3329L14.5769 33.2429C15.0244 33.6902 15.7652 33.6338 16.1396 33.1236L17.0929 31.8247C17.299 31.5439 17.53 31.2818 17.7844 31.0436C19.445 29.4884 21.1477 27.9836 22.8779 26.5167C28.4411 21.7998 27.5897 22.5539 32.1964 16.905L45.6456 1.53253Z" fill="url(#paint2_linear)"/>
    <path d="M14.9032 28.2725C14.8978 28.2782 14.8925 28.284 14.8871 28.2897C14.6947 28.4947 14.4868 28.6848 14.2662 28.859L14.2304 28.8872L17.1254 31.7822C17.3079 31.5383 17.5094 31.3092 17.7288 31.098L14.9032 28.2725Z" fill="url(#paint3_linear)"/>
    <path d="M18.8254 23.8928L22.1073 27.1746C22.3383 26.9763 22.5697 26.7785 22.8018 26.5815L19.4186 23.1982C19.2215 23.4303 19.0238 23.6618 18.8254 23.8928Z" fill="url(#paint4_linear)"/>
    <defs>
        <filter id="filter0_f" x="0" y="34" width="25.2324" height="12.9405" filterUnits="userSpaceOnUse" color-interpolation-filters="sRGB">
            <feFlood flood-opacity="0" result="BackgroundImageFix"/>
            <feBlend mode="normal" in="SourceGraphic" in2="BackgroundImageFix" result="shape"/>
            <feGaussianBlur stdDeviation="2" result="effect1_foregroundBlur"/>
        </filter>
        <linearGradient id="paint0_linear" x1="9.5468" y1="34.3592" x2="12.975" y2="37.7874" gradientUnits="userSpaceOnUse">
            <stop stop-color="#FCC344"/>
            <stop offset="1" stop-color="#D48000"/>
        </linearGradient>
        <linearGradient id="paint1_linear" x1="14.4446" y1="35.2753" x2="14.4446" y2="29.7547" gradientUnits="userSpaceOnUse">
            <stop stop-color="#D48000" stop-opacity="0"/>
            <stop offset="1" stop-color="#D48000"/>
        </linearGradient>
        <linearGradient id="paint2_linear" x1="28.979" y1="15.5089" x2="30.6103" y2="17.1395" gradientUnits="userSpaceOnUse">
            <stop stop-color="#4D4D4D"/>
            <stop offset="1" stop-color="#333333"/>
        </linearGradient>
        <linearGradient id="paint3_linear" x1="17.4376" y1="33.4662" x2="18.8768" y2="36.8943" gradientUnits="userSpaceOnUse">
            <stop stop-color="#FCC344"/>
            <stop offset="1" stop-color="#D48000"/>
        </linearGradient>
        <linearGradient id="paint4_linear" x1="24.218" y1="32.3716" x2="25.854" y2="35.7998" gradientUnits="userSpaceOnUse">
            <stop stop-color="#FCC344"/>
            <stop offset="1" stop-color="#D48000"/>
        </linearGradient>
    </defs>
</svg>
