<svg width="60" height="60" viewBox="0 0 60 60" fill="none" xmlns="http://www.w3.org/2000/svg">
    <g filter="url(#filter0_d)">
        <path d="M32.9353 2.64302C20.0284 1.00755 8.344 10.0095 6.65568 22.9095C6.40777 24.8034 6.39216 26.6721 6.5858 28.4876C6.91387 31.5617 6.96761 34.6591 6.62584 37.7317L5.96519 43.6711C5.86397 44.581 6.5196 45.4008 7.42955 45.502L13.369 46.1626C16.4416 46.5044 19.4513 47.2374 22.3783 48.233C24.1069 48.821 25.9332 49.2163 27.8352 49.3906C40.7909 50.5784 52.1405 41.1583 53.3814 28.2077C54.5927 15.5671 45.533 4.23949 32.9353 2.64302Z" fill="url(#paint0_linear)"/>
        <path d="M52.3013 33.3595C52.2788 33.4279 52.2564 33.4963 52.2327 33.5647C51.2369 36.4915 50.5042 39.5014 50.1624 42.5743L49.5017 48.5142C49.4005 49.4236 48.5807 50.0792 47.6713 49.9781L41.7313 49.3174C41.2873 49.268 40.8436 49.2266 40.3989 49.1943L26.9146 32.3336C26.6841 32.0415 26.6068 31.5537 26.683 30.869C27.0168 27.8675 28.0231 25.7926 29.7035 24.6472C29.873 24.5219 30.2127 24.3058 30.7192 23.9996C30.6027 23.8745 24.193 15.8283 24.1175 15.7456C23.8079 15.4137 23.6832 14.9927 23.7399 14.4832C23.8416 13.5694 24.5838 12.7461 25.9691 12.0138C27.3532 11.2815 29.0356 11.0247 31.0137 11.2448C33.4956 11.5208 35.3802 12.3766 36.6666 13.8087L52.3013 33.3595Z" fill="url(#paint1_linear)"/>
        <path d="M39.1706 49.1216C37.2607 49.0395 35.3467 49.0966 33.4397 49.2652L25.7808 39.6893C25.3828 39.2058 25.2153 38.676 25.2796 38.0976C25.3466 37.4954 25.6272 37.0086 26.1203 36.6369C26.6134 36.2651 27.1883 36.1152 27.8446 36.1882C28.5179 36.2631 29.0773 36.5392 29.5219 37.0152L39.1706 49.1216Z" fill="url(#paint2_linear)"/>
        <path d="M23.7394 14.4828C23.8411 13.569 24.5841 12.7459 25.9692 12.0134C27.3535 11.2815 29.0353 11.0253 31.0138 11.2454C33.4955 11.5214 35.3799 12.3763 36.6661 13.8091C37.9518 15.2427 38.4857 16.9441 38.2665 18.9146C38.1759 19.7293 37.9701 20.4974 37.6491 21.2199C37.3282 21.9422 36.9097 22.5876 36.3928 23.1549C35.8759 23.7226 35.4162 24.1902 35.0149 24.5577C34.6136 24.9257 34.115 25.3223 33.5203 25.748C32.9256 26.1743 32.57 26.4339 32.4549 26.5272C31.5953 27.1497 31.0339 27.819 30.7698 28.5342C30.5056 29.2498 30.291 30.3561 30.1244 31.8537C30.0338 32.6685 29.3819 33.008 28.1699 32.8732C27.5634 32.8058 27.1451 32.6262 26.9145 32.334C26.684 32.0415 26.6067 31.5533 26.6828 30.8687C27.0167 27.8675 28.0235 25.793 29.7033 24.647C29.8907 24.5083 30.285 24.2591 30.8861 23.8995C31.4866 23.54 31.938 23.2366 32.2403 22.9904C32.542 22.744 32.8995 22.4103 33.3129 21.99C33.7262 21.5696 34.0466 21.0991 34.2747 20.5777C34.5028 20.057 34.651 19.4936 34.7184 18.8877C34.8589 17.6241 34.5585 16.5976 33.8177 15.8089C33.0769 15.0202 31.982 14.5448 30.5331 14.3837C29.6919 14.2901 28.9621 14.338 28.3426 14.5272C27.7231 14.7163 27.2773 14.9579 27.005 15.2531C26.7328 15.5481 26.4379 15.8071 26.1207 16.0299C25.8029 16.2527 25.4871 16.3459 25.1717 16.3108C24.7776 16.267 24.4257 16.0789 24.1174 15.746C23.8086 15.4138 23.6827 14.9928 23.7394 14.4828ZM25.2802 38.0977C25.3472 37.4956 25.627 37.0085 26.1203 36.637C26.613 36.2655 27.1883 36.1155 27.8447 36.1885C28.5185 36.2635 29.0775 36.5395 29.5221 37.0154C29.9666 37.4912 30.1554 38.0305 30.0884 38.6325C30.0241 39.2108 29.7221 39.6889 29.1825 40.0678C28.6428 40.4468 28.0363 40.5986 27.3625 40.5237C26.7061 40.4506 26.1784 40.1727 25.7808 39.6895C25.3826 39.2061 25.2159 38.676 25.2802 38.0977Z" fill="white"/>
    </g>
    <defs>
        <filter id="filter0_d" x="-7.62939e-06" y="-1.52588e-05" width="59.9435" height="59.9433" filterUnits="userSpaceOnUse" color-interpolation-filters="sRGB">
            <feFlood flood-opacity="0" result="BackgroundImageFix"/>
            <feColorMatrix in="SourceAlpha" type="matrix" values="0 0 0 0 0 0 0 0 0 0 0 0 0 0 0 0 0 0 127 0"/>
            <feOffset dy="4"/>
            <feGaussianBlur stdDeviation="2"/>
            <feColorMatrix type="matrix" values="0 0 0 0 0 0 0 0 0 0 0 0 0 0 0 0 0 0 0.25 0"/>
            <feBlend mode="normal" in2="BackgroundImageFix" result="effect1_dropShadow"/>
            <feBlend mode="normal" in="SourceGraphic" in2="effect1_dropShadow" result="shape"/>
        </filter>
        <linearGradient id="paint0_linear" x1="39.7313" y1="18.1669" x2="4.26288" y2="46.5348" gradientUnits="userSpaceOnUse">
            <stop stop-color="#62E1FB"/>
            <stop offset="1" stop-color="#00A2F3"/>
        </linearGradient>
        <linearGradient id="paint1_linear" x1="42.471" y1="36.4267" x2="18.7308" y2="6.74426" gradientUnits="userSpaceOnUse">
            <stop stop-color="#00A2F3" stop-opacity="0"/>
            <stop offset="1" stop-color="#0075CD"/>
        </linearGradient>
        <linearGradient id="paint2_linear" x1="32.6007" y1="44.5415" x2="26.2844" y2="36.6442" gradientUnits="userSpaceOnUse">
            <stop stop-color="#00A2F3" stop-opacity="0"/>
            <stop offset="1" stop-color="#0075CD"/>
        </linearGradient>
    </defs>
</svg>
