<svg width="30" height="30" viewBox="0 0 30 30" fill="none" xmlns="http://www.w3.org/2000/svg">
    <path d="M15.8464 0.820312C15.6976 0.820312 15.5495 0.823288 15.4019 0.827866V0.820312H4.10431C3.59024 0.820312 3.17345 1.23711 3.17345 1.75117C3.17345 2.26524 3.59024 2.68204 4.10431 2.68204H5.88203C6.75568 2.68204 7.1624 3.76328 6.50642 4.34029C6.49658 4.34898 6.48674 4.35768 6.47667 4.36638C5.94452 4.83719 5.25673 5.09399 4.54605 5.09399H0.930862C0.416794 5.09399 0 5.51056 0 6.02486C0 6.53893 0.416794 6.95572 0.930862 6.95572H3.11577C3.56873 6.95572 3.85025 7.44713 3.62137 7.83783C3.61908 7.84195 3.61679 7.84607 3.6145 7.84996C3.50945 8.02986 3.31696 8.14041 3.10867 8.14041H2.36961C1.85532 8.14041 1.43875 8.55721 1.43875 9.07127C1.43875 9.58534 1.85532 10.0021 2.36961 10.0021C2.47719 10.0021 2.55135 10.109 2.51495 10.2104C1.96037 11.7627 1.66809 13.4395 1.69395 15.1881C1.80908 22.9479 8.08571 29.1277 15.8462 29.1277C23.6632 29.1277 30 22.7909 30 14.9739C30 7.15714 23.6632 0.820313 15.8464 0.820313V0.820312Z" fill="url(#paint0_linear)"/>
    <path d="M9.5945 5.07275H4.89258C4.77814 5.08626 4.66255 5.09404 4.54605 5.09404H0.930862C0.416794 5.09404 0 5.5106 0 6.0249C0 6.53897 0.416794 6.95576 0.930862 6.95576H9.5945V5.07275Z" fill="url(#paint1_linear)"/>
    <path d="M28.5132 14.9739C28.5132 21.9697 22.8419 27.6409 15.8464 27.6409C8.85062 27.6409 3.17938 21.9697 3.17938 14.9739C3.17938 7.97836 8.85062 2.30713 15.8464 2.30713C22.8419 2.30713 28.5132 7.97836 28.5132 14.9739Z" fill="url(#paint2_linear)"/>
    <path d="M27.6036 14.974C27.6036 21.4676 22.3398 26.7314 15.8464 26.7314C9.35281 26.7314 4.08899 21.4676 4.08899 14.974C4.08899 8.48062 9.35281 3.2168 15.8464 3.2168C22.3398 3.2168 27.6036 8.48062 27.6036 14.974Z" fill="url(#paint3_radial)"/>
    <path d="M15.8464 7.04346C15.4189 7.04346 15.0723 6.69693 15.0723 6.26938V5.04166C15.0723 4.61411 15.4189 4.26758 15.8464 4.26758C16.2737 4.26758 16.6203 4.61411 16.6203 5.04166V6.26938C16.6203 6.69693 16.2737 7.04346 15.8464 7.04346Z" fill="url(#paint4_linear)"/>
    <path d="M15.8464 25.6807C15.4189 25.6807 15.0723 25.3341 15.0723 24.9066V23.6789C15.0723 23.2513 15.4189 22.9048 15.8464 22.9048C16.2737 22.9048 16.6203 23.2513 16.6203 23.6789V24.9066C16.6203 25.3341 16.2737 25.6807 15.8464 25.6807Z" fill="url(#paint5_linear)"/>
    <path d="M23.7769 14.9738C23.7769 14.5465 24.1234 14.2 24.5508 14.2H25.7787C26.2063 14.2 26.5528 14.5465 26.5528 14.9738C26.5528 15.4014 26.2063 15.7479 25.7787 15.7479H24.5508C24.1234 15.7479 23.7769 15.4014 23.7769 14.9738Z" fill="url(#paint6_linear)"/>
    <path d="M5.13977 14.9738C5.13977 14.5465 5.4863 14.2 5.91385 14.2H7.14157C7.56912 14.2 7.91565 14.5465 7.91565 14.9738C7.91565 15.4014 7.56912 15.7479 7.14157 15.7479H5.91385C5.4863 15.7479 5.13977 15.4014 5.13977 14.9738Z" fill="url(#paint7_linear)"/>
    <path d="M16.2208 7.85492C16.1535 7.71576 16.0114 7.61963 15.8464 7.61963C15.6164 7.61963 15.4301 7.80594 15.4301 8.03574V14.9738C15.4301 15.0844 15.4738 15.1901 15.5518 15.2684L15.7457 15.462L23.8598 23.5764C25.2921 22.2415 26.3905 20.5535 27.0165 18.6508L16.2208 7.85492Z" fill="url(#paint8_linear)"/>
    <path d="M19.2597 18.8037C19.1533 18.8037 19.0468 18.7632 18.9654 18.6817L15.5518 15.2684C15.4738 15.1901 15.4301 15.0844 15.4301 14.9738V8.03574C15.4301 7.80594 15.6164 7.61963 15.8464 7.61963C16.0762 7.61963 16.2627 7.80594 16.2627 8.03574V14.8015L19.5543 18.093C19.7168 18.2555 19.7168 18.5192 19.5543 18.6817C19.4728 18.7632 19.3664 18.8037 19.2597 18.8037Z" fill="url(#paint9_linear)"/>
    <path d="M16.9842 14.974C16.9842 15.6025 16.4747 16.112 15.8464 16.112C15.2179 16.112 14.7084 15.6025 14.7084 14.974C14.7084 14.3457 15.2179 13.8362 15.8464 13.8362C16.4747 13.8362 16.9842 14.3457 16.9842 14.974Z" fill="url(#paint10_linear)"/>
    <path d="M15.8464 0.820312C15.6976 0.820312 15.5496 0.823288 15.4019 0.827866V0.820312H4.10432C3.59026 0.820312 3.17346 1.23711 3.17346 1.75117C3.17346 2.26524 3.59026 2.68204 4.10432 2.68204H22.8674C20.7983 1.49757 18.4014 0.820312 15.8464 0.820312Z" fill="url(#paint11_linear)"/>
    <defs>
        <linearGradient id="paint0_linear" x1="8.16142" y1="7.29977" x2="34.4113" y2="33.5496" gradientUnits="userSpaceOnUse">
            <stop stop-color="#3B395F"/>
            <stop offset="0.0633" stop-color="#37355A"/>
            <stop offset="0.4033" stop-color="#232543"/>
            <stop offset="0.7232" stop-color="#171B35"/>
            <stop offset="1" stop-color="#131830"/>
        </linearGradient>
        <linearGradient id="paint1_linear" x1="4.76524" y1="6.48074" x2="3.47998" y2="9.70183" gradientUnits="userSpaceOnUse">
            <stop stop-color="#3B395F" stop-opacity="0"/>
            <stop offset="0.0633" stop-color="#37355A" stop-opacity="0.062745"/>
            <stop offset="0.4033" stop-color="#232543" stop-opacity="0.403922"/>
            <stop offset="0.7232" stop-color="#171B35" stop-opacity="0.721569"/>
            <stop offset="1" stop-color="#131830"/>
        </linearGradient>
        <linearGradient id="paint2_linear" x1="20.577" y1="19.7047" x2="0.263666" y2="-0.608706" gradientUnits="userSpaceOnUse">
            <stop stop-color="#3B395F"/>
            <stop offset="0.0633" stop-color="#37355A"/>
            <stop offset="0.4033" stop-color="#232543"/>
            <stop offset="0.7232" stop-color="#171B35"/>
            <stop offset="1" stop-color="#131830"/>
        </linearGradient>
        <radialGradient id="paint3_radial" cx="0" cy="0" r="1" gradientUnits="userSpaceOnUse" gradientTransform="translate(12.9912 9.69411) scale(18.4015)">
            <stop stop-color="#FFFCF8"/>
            <stop offset="0.4554" stop-color="#FDFBF7"/>
            <stop offset="0.6194" stop-color="#F6F5F5"/>
            <stop offset="0.7363" stop-color="#EBEDF1"/>
            <stop offset="0.8309" stop-color="#DAE0EB"/>
            <stop offset="0.9118" stop-color="#C4CFE4"/>
            <stop offset="0.9822" stop-color="#A9BBDB"/>
            <stop offset="1" stop-color="#A1B5D8"/>
        </radialGradient>
        <linearGradient id="paint4_linear" x1="15.4381" y1="5.65552" x2="16.5683" y2="5.65552" gradientUnits="userSpaceOnUse">
            <stop stop-color="#FF6E3A"/>
            <stop offset="0.1596" stop-color="#FF6440"/>
            <stop offset="0.4266" stop-color="#FF4B52"/>
            <stop offset="0.7662" stop-color="#FF216E"/>
            <stop offset="1" stop-color="#FF0084"/>
        </linearGradient>
        <linearGradient id="paint5_linear" x1="15.4381" y1="24.2927" x2="16.5683" y2="24.2927" gradientUnits="userSpaceOnUse">
            <stop stop-color="#FF6E3A"/>
            <stop offset="0.1596" stop-color="#FF6440"/>
            <stop offset="0.4266" stop-color="#FF4B52"/>
            <stop offset="0.7662" stop-color="#FF216E"/>
            <stop offset="1" stop-color="#FF0084"/>
        </linearGradient>
        <linearGradient id="paint6_linear" x1="25.1648" y1="14.5657" x2="25.1648" y2="15.6959" gradientUnits="userSpaceOnUse">
            <stop stop-color="#FF6E3A"/>
            <stop offset="0.1596" stop-color="#FF6440"/>
            <stop offset="0.4266" stop-color="#FF4B52"/>
            <stop offset="0.7662" stop-color="#FF216E"/>
            <stop offset="1" stop-color="#FF0084"/>
        </linearGradient>
        <linearGradient id="paint7_linear" x1="6.52761" y1="14.5657" x2="6.52761" y2="15.6959" gradientUnits="userSpaceOnUse">
            <stop stop-color="#FF6E3A"/>
            <stop offset="0.1596" stop-color="#FF6440"/>
            <stop offset="0.4266" stop-color="#FF4B52"/>
            <stop offset="0.7662" stop-color="#FF216E"/>
            <stop offset="1" stop-color="#FF0084"/>
        </linearGradient>
        <linearGradient id="paint8_linear" x1="21.0038" y1="15.6011" x2="1.13308" y2="15.5456" gradientUnits="userSpaceOnUse">
            <stop stop-color="#A1B5D8" stop-opacity="0"/>
            <stop offset="0.0343" stop-color="#9FB3D5" stop-opacity="0.035294"/>
            <stop offset="0.4515" stop-color="#8898AF" stop-opacity="0.45098"/>
            <stop offset="0.788" stop-color="#798898" stop-opacity="0.788235"/>
            <stop offset="1" stop-color="#748290"/>
        </linearGradient>
        <linearGradient id="paint9_linear" x1="13.8174" y1="9.476" x2="21.2887" y2="16.9473" gradientUnits="userSpaceOnUse">
            <stop stop-color="#FFD459"/>
            <stop offset="0.2296" stop-color="#FFD355"/>
            <stop offset="0.4362" stop-color="#FFCF4A"/>
            <stop offset="0.634" stop-color="#FFC838"/>
            <stop offset="0.825" stop-color="#FFBF1F"/>
            <stop offset="1" stop-color="#FFB400"/>
        </linearGradient>
        <linearGradient id="paint10_linear" x1="14.8749" y1="14.0027" x2="17.5955" y2="16.7233" gradientUnits="userSpaceOnUse">
            <stop stop-color="#FF6E3A"/>
            <stop offset="0.1596" stop-color="#FF6440"/>
            <stop offset="0.4266" stop-color="#FF4B52"/>
            <stop offset="0.7662" stop-color="#FF216E"/>
            <stop offset="1" stop-color="#FF0084"/>
        </linearGradient>
        <linearGradient id="paint11_linear" x1="12.8838" y1="2.44628" x2="11.4028" y2="5.95827" gradientUnits="userSpaceOnUse">
            <stop stop-color="#3B395F" stop-opacity="0"/>
            <stop offset="0.0633" stop-color="#37355A" stop-opacity="0.062745"/>
            <stop offset="0.4033" stop-color="#232543" stop-opacity="0.403922"/>
            <stop offset="0.7232" stop-color="#171B35" stop-opacity="0.721569"/>
            <stop offset="1" stop-color="#131830"/>
        </linearGradient>
    </defs>
</svg>
