<svg width="70" height="70" viewBox="0 0 70 70" fill="none" xmlns="http://www.w3.org/2000/svg">
    <g clip-path="url(#clip0)">
        <path d="M57.8002 66.3536V10.0303C57.8002 8.01742 56.1666 6.38391 54.1538 6.38391H6.52106C4.50815 6.38391 2.87464 8.01756 2.87464 10.0303V66.3536C2.87464 68.3665 4.50829 70 6.52106 70H54.1536C56.1667 70 57.8002 68.3665 57.8002 66.3536Z" fill="url(#paint0_linear)"/>
        <path d="M39.4438 70H6.52106C4.50706 70 2.87464 68.3673 2.87464 66.3536V10.0303C2.87464 8.01633 4.50733 6.38391 6.52106 6.38391H54.1536C56.1676 6.38391 57.8001 8.0166 57.8001 10.0303V52.5986C57.8001 53.1567 57.5806 53.6922 57.1889 54.0898L42.9645 68.5263C42.0357 69.4691 40.7674 70 39.4438 70Z" fill="url(#paint1_linear)"/>
        <path d="M30.3374 70H6.14577C4.33903 70 2.87464 68.3674 2.87464 66.3536V59.3038V10.0303C2.87464 8.01633 4.33917 6.38391 6.14577 6.38391H30.3373V70H30.3374Z" fill="url(#paint2_linear)"/>
        <path d="M57.8001 38.2368V66.6832C57.8001 68.5151 56.1675 70.0002 54.1536 70.0002H47.1039H6.52106C4.50706 70.0002 2.87464 68.5151 2.87464 66.6832V38.2368C2.87464 38.0353 57.8001 38.2368 57.8001 38.2368Z" fill="url(#paint3_linear)"/>
        <path d="M57.6134 53.4694C57.6134 53.4694 57.5057 53.7747 57.0816 54.1988C56.9239 54.3564 43.0483 68.4415 43.0483 68.4415C42.0658 69.4386 40.7246 70.0001 39.3249 70.0001C40.5333 70.0001 41.5128 69.0205 41.5128 67.8122V57.1159C41.5128 55.1019 43.1455 53.4695 45.1592 53.4695H57.6136V53.4694H57.6134Z" fill="url(#paint4_linear)"/>
        <path d="M48.4689 38.2777H12.2062V40.7607H48.4689V38.2777Z" fill="#777777"/>
        <path d="M48.4689 47.7593H12.2062V50.2422H48.4689V47.7593Z" fill="#777777"/>
        <path d="M34.0805 57.2395H12.2062V59.7224H34.0805V57.2395Z" fill="#777777"/>
        <path d="M48.4689 19.3146H12.2062V21.7975H48.4689V19.3146Z" fill="#777777"/>
        <path d="M48.4689 28.7948H12.2062V31.2777H48.4689V28.7948Z" fill="#777777"/>
        <path d="M57.8001 52.5989V52.5986V10.0302C57.8001 8.01621 56.1674 6.38379 54.1537 6.38379H39.3275L39.2018 7.45553C39.1596 7.81619 38.9466 8.13474 38.6291 8.31138L36.7886 9.33622C36.3305 9.59134 36.108 10.1282 36.2513 10.6327L36.8272 12.6593C36.9264 13.0085 36.8519 13.384 36.627 13.6688L35.32 15.3238C34.9957 15.7345 34.9957 16.3141 35.32 16.7248L36.627 18.3797C36.8519 18.6645 36.9264 19.0401 36.8272 19.3893L36.2513 21.4158C36.1125 21.9039 36.3171 22.4214 36.7453 22.6857L39.2773 25.2375L39.4471 26.6872C39.4884 27.0394 39.6902 27.3408 39.9774 27.5179C40.0701 27.6683 40.1969 27.795 40.3474 27.8878C40.4401 28.0382 40.5668 28.165 40.7174 28.2577C40.7416 28.297 40.7684 28.3344 40.7971 28.3703L40.7942 43.8203C40.7941 44.2543 41.0194 44.6047 41.3371 44.8065L57.8002 61.2696V52.5987H57.8001V52.5989Z" fill="url(#paint5_linear)"/>
        <path d="M59.5736 44.7928L51.0996 39.033L42.6235 44.7894C41.8457 45.3176 40.7938 44.7604 40.7941 43.82L40.799 17.6326L61.4083 17.6367L61.4034 43.8241C61.4031 44.7643 60.3511 45.3213 59.5736 44.7928Z" fill="url(#paint6_linear)"/>
        <path d="M51.0996 39.033L54.7477 41.5125L54.7522 17.6354L47.4553 17.6339L47.4506 41.5111L51.0996 39.033Z" fill="url(#paint7_linear)"/>
        <path d="M61.4084 17.6371L61.4037 43.8237C61.4037 44.7648 60.3513 45.3211 59.5732 44.7931L54.7481 41.5122L54.7528 17.636L61.4084 17.6371Z" fill="url(#paint8_linear)"/>
        <path d="M40.7972 27.6103L54.5969 41.41L59.5736 44.7926C60.3512 45.3212 61.4033 44.7643 61.4034 43.824L61.4085 17.6365L40.799 17.6326L40.7972 27.6103Z" fill="url(#paint9_linear)"/>
        <path d="M66.8823 16.7249L65.5753 18.3799C65.3504 18.6647 65.2759 19.0402 65.375 19.3894L65.9508 21.416C66.0943 21.9203 65.8718 22.4574 65.4135 22.7125L63.573 23.7373C63.2557 23.9141 63.0426 24.2325 63.0003 24.5932L62.755 26.6872C62.6941 27.2072 62.284 27.6174 61.764 27.6782L59.67 27.9235C59.3092 27.9658 58.9908 28.1788 58.8141 28.4962L57.7893 30.3367C57.5342 30.7949 56.9973 31.0173 56.4928 30.874L54.4662 30.2982C54.117 30.1989 53.7415 30.2734 53.4567 30.4985L51.8017 31.8055C51.391 32.1298 50.8115 32.1298 50.4008 31.8055L48.7458 30.4985C48.461 30.2736 48.0854 30.199 47.7362 30.2982L45.7097 30.874C45.2053 31.0174 44.6683 30.795 44.4132 30.3367L43.3883 28.4962C43.2115 28.1789 42.8931 27.9658 42.5325 27.9235L40.4385 27.6782C39.9184 27.6173 39.5083 27.2072 39.4474 26.6872L39.2021 24.5932C39.1599 24.2324 38.9469 23.914 38.6294 23.7373L36.7889 22.7125C36.3308 22.4574 36.1083 21.9205 36.2516 21.416L36.8275 19.3894C36.9267 19.0402 36.8522 18.6647 36.6272 18.3799L35.3202 16.7249C34.9959 16.3142 34.9959 15.7346 35.3202 15.3239L36.6272 13.669C36.8521 13.3842 36.9266 13.0086 36.8275 12.6594L36.2516 10.6329C36.1082 10.1285 36.3306 9.59147 36.7889 9.33636L38.6294 8.31151C38.9467 8.13474 39.1599 7.81632 39.2021 7.45566L39.4474 5.36167C39.5084 4.8416 39.9184 4.43144 40.4385 4.3706L42.5325 4.12533C42.8933 4.08308 43.2117 3.87008 43.3883 3.55262L44.4132 1.71211C44.6683 1.25397 45.2052 1.03153 45.7097 1.17481L47.7362 1.75067C48.0854 1.84992 48.461 1.77541 48.7458 1.55037L50.4008 0.243344C50.8115 -0.080952 51.391 -0.080952 51.8017 0.243344L53.4567 1.55037C53.7415 1.77527 54.117 1.84979 54.4662 1.75067L56.4928 1.17481C56.9971 1.03139 57.5342 1.25383 57.7893 1.71211L58.8141 3.55262C58.9909 3.86994 59.3093 4.08308 59.67 4.12533L61.764 4.3706C62.284 4.43158 62.6942 4.8416 62.755 5.36167L63.0003 7.45566C63.0426 7.81646 63.2556 8.13487 63.573 8.31151L65.4135 9.33636C65.8717 9.59147 66.0941 10.1284 65.9508 10.6329L65.375 12.6594C65.2757 13.0086 65.3502 13.3842 65.5753 13.669L66.8823 15.3239C67.2065 15.7346 67.2065 16.3142 66.8823 16.7249Z" fill="url(#paint10_linear)"/>
        <path d="M51.1014 26.5246C56.9004 26.5246 61.6014 21.8236 61.6014 16.0246C61.6014 10.2257 56.9004 5.52466 51.1014 5.52466C45.3024 5.52466 40.6014 10.2257 40.6014 16.0246C40.6014 21.8236 45.3024 26.5246 51.1014 26.5246Z" fill="url(#paint11_linear)"/>
        <path d="M51.1014 26.5246C56.9004 26.5246 61.6014 21.8236 61.6014 16.0246C61.6014 10.2257 56.9004 5.52466 51.1014 5.52466C45.3024 5.52466 40.6014 10.2257 40.6014 16.0246C40.6014 21.8236 45.3024 26.5246 51.1014 26.5246Z" fill="url(#paint12_linear)"/>
        <path d="M51.1014 24.581C55.827 24.581 59.6578 20.7502 59.6578 16.0247C59.6578 11.2991 55.827 7.46826 51.1014 7.46826C46.3758 7.46826 42.545 11.2991 42.545 16.0247C42.545 20.7502 46.3758 24.581 51.1014 24.581Z" fill="url(#paint13_linear)"/>
    </g>
    <defs>
        <linearGradient id="paint0_linear" x1="47.6264" y1="55.4844" x2="58.6861" y2="66.5455" gradientUnits="userSpaceOnUse">
            <stop stop-color="#3B4041"/>
            <stop offset="0.373" stop-color="#6F7273"/>
            <stop offset="1" stop-color="#C3C3C3"/>
        </linearGradient>
        <linearGradient id="paint1_linear" x1="30.3367" y1="27.345" x2="30.3367" y2="109.611" gradientUnits="userSpaceOnUse">
            <stop stop-color="#F2F2F2"/>
            <stop offset="1" stop-color="#C3C3C3"/>
        </linearGradient>
        <linearGradient id="paint2_linear" x1="22.5039" y1="38.1927" x2="51.4558" y2="38.1927" gradientUnits="userSpaceOnUse">
            <stop stop-color="#C3C3C3" stop-opacity="0"/>
            <stop offset="1" stop-color="#777777"/>
        </linearGradient>
        <linearGradient id="paint3_linear" x1="24.5551" y1="45.5344" x2="2.05129" y2="16.5277" gradientUnits="userSpaceOnUse">
            <stop stop-color="#C3C3C3" stop-opacity="0"/>
            <stop offset="1" stop-color="#777777"/>
        </linearGradient>
        <linearGradient id="paint4_linear" x1="46.1813" y1="59.4481" x2="50.5349" y2="63.8017" gradientUnits="userSpaceOnUse">
            <stop stop-color="#F2F2F2"/>
            <stop offset="1" stop-color="#C3C3C3"/>
        </linearGradient>
        <linearGradient id="paint5_linear" x1="59.0001" y1="53.9226" x2="48.219" y2="23.6929" gradientUnits="userSpaceOnUse">
            <stop stop-color="#C3C3C3" stop-opacity="0"/>
            <stop offset="0.252" stop-color="#A6A6A6" stop-opacity="0.252"/>
            <stop offset="0.539" stop-color="#8C8C8C" stop-opacity="0.539"/>
            <stop offset="0.797" stop-color="#7D7D7D" stop-opacity="0.797"/>
            <stop offset="1" stop-color="#777777"/>
        </linearGradient>
        <linearGradient id="paint6_linear" x1="51.1001" y1="31.8043" x2="51.1001" y2="18.4717" gradientUnits="userSpaceOnUse">
            <stop stop-color="#62E1FB"/>
            <stop offset="1" stop-color="#00A2F3"/>
        </linearGradient>
        <linearGradient id="paint7_linear" x1="51.1003" y1="29.6302" x2="51.1003" y2="18.5938" gradientUnits="userSpaceOnUse">
            <stop stop-color="#F2F2F2"/>
            <stop offset="1" stop-color="#C3C3C3"/>
        </linearGradient>
        <linearGradient id="paint8_linear" x1="58.077" y1="33.5433" x2="58.077" y2="21.2181" gradientUnits="userSpaceOnUse">
            <stop stop-color="#FF4C54"/>
            <stop offset="1" stop-color="#BE3F45"/>
        </linearGradient>
        <linearGradient id="paint9_linear" x1="54.7935" y1="35.5788" x2="49.1607" y2="15.8132" gradientUnits="userSpaceOnUse">
            <stop stop-color="#00A2F3" stop-opacity="0"/>
            <stop offset="1" stop-color="#0075CD"/>
        </linearGradient>
        <linearGradient id="paint10_linear" x1="41.9771" y1="6.90278" x2="66.8705" y2="31.7961" gradientUnits="userSpaceOnUse">
            <stop stop-color="#FFF465"/>
            <stop offset="1" stop-color="#FFE600"/>
        </linearGradient>
        <linearGradient id="paint11_linear" x1="57.0777" y1="22.0031" x2="40.7653" y2="5.69112" gradientUnits="userSpaceOnUse">
            <stop stop-color="#FFF465"/>
            <stop offset="1" stop-color="#FFE600"/>
        </linearGradient>
        <linearGradient id="paint12_linear" x1="57.0777" y1="22.0031" x2="40.7653" y2="5.69112" gradientUnits="userSpaceOnUse">
            <stop stop-color="#FFF465"/>
            <stop offset="1" stop-color="#FFE600"/>
        </linearGradient>
        <linearGradient id="paint13_linear" x1="46.2292" y1="11.1548" x2="59.5207" y2="24.4462" gradientUnits="userSpaceOnUse">
            <stop stop-color="#FFF465"/>
            <stop offset="1" stop-color="#FFE600"/>
        </linearGradient>
        <clipPath id="clip0">
            <rect width="70" height="70" fill="white"/>
        </clipPath>
    </defs>
</svg>
